<svg width="720" height="533" viewBox="0 0 720 533" fill="none" xmlns="http://www.w3.org/2000/svg">
<path d="M203.53 259.85V422.5H124.09V259.85L0 0.939941H83.21L163.81 182.44L244.41 0.939941H327.62L203.53 259.85Z" fill="#8A2220"/>
<path d="M327.4 422.17H244.94V0H327.4V422.17Z" fill="#8A2220"/>
<path d="M347.27 0H426.83V422.17H347.27V0ZM383.57 181.76H518.57C527.384 181.935 536.076 179.675 543.69 175.23C550.999 170.831 556.898 164.433 560.69 156.79C564.763 148.863 566.796 139.767 566.79 129.5C566.79 119.04 564.806 109.797 560.84 101.77C557.166 94.0616 551.311 87.6011 544 83.19C536.74 78.83 528.27 76.65 518.59 76.65H383.59V0H516.59C542.863 0 566.03 5.37 586.09 16.11C605.687 26.4364 621.873 42.2193 632.69 61.55C643.716 81.11 649.233 103.777 649.24 129.55C649.246 155.323 643.73 177.923 632.69 197.35C621.863 216.6 605.672 232.287 586.09 242.5C566.05 253.167 542.87 258.5 516.55 258.5H383.55L383.57 181.76Z" fill="#8A2220"/>
<mask id="mask0_9_360" style="mask-type:luminance" maskUnits="userSpaceOnUse" x="124" y="29" width="546" height="400">
<path d="M615.54 35.34C615.54 55.07 597.21 87.71 575.43 101.44C574.73 101.89 574.03 102.36 573.37 102.87L407.37 230.22L179 400.41C178.005 401.14 176.966 401.808 175.89 402.41C168.95 406.33 141.77 421.2 124.3 424.1V426.46L635.9 428.65C643.712 428.685 651.22 425.629 656.788 420.15C662.355 414.67 665.53 407.211 665.62 399.4L669.55 65.25C669.591 61.3326 668.854 57.4461 667.382 53.8157C665.909 50.1853 663.731 46.8833 660.973 44.1011C658.215 41.3189 654.932 39.1119 651.315 37.608C647.697 36.104 643.817 35.3331 639.9 35.34C627.24 35.37 615.54 22.68 615.54 35.34Z" fill="white"/>
</mask>
<g mask="url(#mask0_9_360)">
<path d="M203.33 259.78V422.7H123.75V259.78L-0.540039 0.439941H82.8L163.54 182.24L244.27 0.439941H327.62L203.33 259.78Z" fill="#88B6CC"/>
<path d="M327.4 422.37H244.8V-0.51001H327.4V422.37Z" fill="#88B6CC"/>
<path d="M347.31 -0.51001H427V422.37H347.31V-0.51001ZM383.66 181.56H518.9C527.73 181.73 536.436 179.46 544.06 175C551.368 170.587 557.266 164.179 561.06 156.53C565.14 148.577 567.176 139.463 567.17 129.19C567.17 118.717 565.17 109.457 561.17 101.41C557.489 93.6891 551.623 87.2183 544.3 82.8C537.033 78.44 528.55 76.26 518.85 76.26H383.66V-0.51001H516.87C543.23 -0.51001 566.446 4.87332 586.52 15.64C606.154 25.9756 622.369 41.7842 633.2 61.15C644.246 80.7433 649.773 103.43 649.78 129.21C649.786 154.99 644.26 177.627 633.2 197.12C622.358 216.407 606.139 232.123 586.52 242.35C566.46 253.017 543.243 258.35 516.87 258.35H383.66V181.56Z" fill="#88B6CC"/>
</g>
<g style="mix-blend-mode:multiply">
<path d="M124.62 424.18L140.73 420.13L174.15 404.56C174.15 404.56 446.15 190.49 509.72 152.79C523.01 144.91 548.53 124.79 571.82 106.71C599.25 85.47 613.71 68.94 615.57 37.53" stroke="#8B8A8A" stroke-width="0.25" stroke-miterlimit="10"/>
<path d="M125.22 424.18C125.22 424.18 141.22 420.18 141.32 420.11C141.42 420.04 174.62 404.6 174.72 404.54L185.48 396.1C225.73 364.6 368 253.53 454.66 190.85C478.49 173.62 498.11 160.06 510.24 152.85C523.57 144.91 549.04 124.77 572.24 106.74C574.84 104.74 577.32 102.74 579.69 100.8C602.14 82.3501 614 65.9 615.53 37.55" stroke="#8B8B8B" stroke-width="0.25" stroke-miterlimit="10"/>
<path d="M125.82 424.18C125.88 424.13 141.82 420.18 141.91 420.1C142 420.02 175.09 404.64 175.3 404.51L186.05 396.08C226.54 364.46 368.53 253.66 455.22 190.93C479 173.73 498.6 160.16 510.75 152.93C524.12 144.93 549.55 124.8 572.75 106.78C575.35 104.78 577.83 102.8 580.19 100.84C602.5 82.5101 614.19 65.8401 615.58 37.5801" stroke="#8C8B8B" stroke-width="0.25" stroke-miterlimit="10"/>
<path d="M126.42 424.18C126.51 424.1 142.3 420.18 142.5 420.08C142.7 419.98 175.56 404.68 175.87 404.48C175.94 404.48 179.79 401.42 186.63 396.06C227.35 364.32 369.08 253.79 455.78 191.06C479.51 173.89 499.09 160.32 511.27 153C524.68 144.92 550.06 124.81 573.2 106.81C575.79 104.81 578.27 102.81 580.63 100.81C602.79 82.6 614.36 65.81 615.57 37.55" stroke="#8C8C8C" stroke-width="0.25" stroke-miterlimit="10"/>
<path d="M127 424.18C127.12 424.07 142.8 420.18 143.07 420.07C143.34 419.96 176.01 404.72 176.42 404.45C176.51 404.4 180.36 401.38 187.18 396.04C228.18 364.18 369.61 253.92 456.31 191.1C480 174 499.58 160.37 511.78 153C525.24 144.86 550.57 124.76 573.66 106.78C576.253 104.78 578.73 102.78 581.09 100.78C603.09 82.69 614.52 65.64 615.57 37.5" stroke="#8D8D8C" stroke-width="0.25" stroke-miterlimit="10"/>
<path d="M127.62 424.17C127.77 424.04 143.34 420.17 143.68 420.05C144.02 419.93 176.5 404.76 177 404.43L187.76 396.03C228.95 364.03 370.16 254.03 456.87 191.18C480.51 174.05 500.05 160.47 512.28 153.06C525.77 144.85 551.06 124.77 574.1 106.79C576.693 104.79 579.167 102.79 581.52 100.79C603.37 82.79 614.66 65.57 615.52 37.51" stroke="#8E8D8D" stroke-width="0.25" stroke-miterlimit="10"/>
<path d="M128.22 424.17C128.39 424.01 143.86 420.22 144.27 420.04C144.5 419.94 176.97 404.79 177.59 404.4C177.72 404.31 181.59 401.3 188.35 396.01C229.78 363.89 370.73 254.19 457.45 191.26C481.04 174.16 500.56 160.57 512.81 153.11C526.35 144.84 551.59 124.77 574.58 106.81C577.16 104.81 579.63 102.81 581.99 100.81C603.66 82.92 614.83 65.51 615.56 37.52" stroke="#8E8E8E" stroke-width="0.25" stroke-miterlimit="10"/>
<path d="M128.811 424.17C129.021 423.99 144.381 420.23 144.861 420.03C145.131 419.91 177.441 404.83 178.161 404.37C178.321 404.27 182.161 401.25 188.931 395.99C230.521 363.66 371.281 254.32 458.001 191.35C481.551 174.27 501.051 160.67 513.331 153.17C526.911 144.82 552.101 124.77 575.041 106.82C577.621 104.82 580.087 102.82 582.441 100.82C604.001 83.0801 615.001 65.4901 615.561 37.5701" stroke="#8F8E8E" stroke-width="0.25" stroke-miterlimit="10"/>
<path d="M129.41 424.17C129.65 423.96 144.91 420.25 145.41 420.01C145.72 419.87 177.87 404.87 178.7 404.34C178.88 404.23 182.7 401.21 189.47 395.97C231.27 363.51 371.79 254.45 458.52 191.43C482.02 174.38 501.52 160.78 513.8 153.22C527.43 144.81 552.57 124.78 575.46 106.84C578.04 104.84 580.507 102.84 582.86 100.84C604.21 83.18 615.11 65.39 615.52 37.54" stroke="#8F8F8F" stroke-width="0.25" stroke-miterlimit="10"/>
<path d="M130 424.17C130.27 423.93 145.42 420.26 146 420C146.35 419.84 178.34 404.91 179.27 404.32C179.47 404.19 183.27 401.17 190.04 395.95C232.04 363.36 372.35 254.58 459.04 191.51C482.5 174.51 501.97 160.88 514.29 153.27C527.95 144.8 553.05 124.78 575.89 106.85C578.457 104.85 580.92 102.85 583.28 100.85C604.48 83.3 615.28 65.32 615.49 37.55" stroke="#908F8F" stroke-width="0.25" stroke-miterlimit="10"/>
<path d="M130.61 424.16C130.91 423.9 145.95 420.28 146.61 419.98C147 419.81 178.83 404.98 179.86 404.29C180.09 404.15 183.91 401.13 190.64 395.93C232.89 363.2 372.92 254.71 459.64 191.6C483.05 174.6 502.5 160.98 514.84 153.33C528.55 144.79 553.6 124.78 576.39 106.87C578.96 104.87 581.39 102.87 583.77 100.87C604.77 83.4401 615.44 65.2601 615.53 37.5601" stroke="#919090" stroke-width="0.25" stroke-miterlimit="10"/>
<path d="M131.21 424.16C131.54 423.87 146.47 420.3 147.21 419.97C147.64 419.78 179.3 404.97 180.45 404.26C180.69 404.1 184.52 401.09 191.22 395.91C233.7 363.05 373.48 254.84 460.22 191.68C483.58 174.68 503.01 161.08 515.38 153.38C529.13 144.77 554.13 124.78 576.87 106.88C579.443 104.88 581.9 102.88 584.24 100.88C605.13 83.5701 615.62 65.1901 615.55 37.5601" stroke="#919190" stroke-width="0.25" stroke-miterlimit="10"/>
<path d="M131.811 424.16C132.161 423.84 146.991 420.31 147.811 419.95C148.281 419.75 179.811 405.03 181.031 404.23C181.301 404.06 185.121 401.06 191.811 395.89C234.511 362.89 374.041 254.97 460.811 191.76C484.131 174.81 503.541 161.19 515.931 153.44C529.721 144.76 554.671 124.79 577.371 106.9C579.931 104.9 582.371 102.9 584.741 100.9C605.471 83.7001 615.811 65.1401 615.591 37.5801" stroke="#929191" stroke-width="0.25" stroke-miterlimit="10"/>
<path d="M132.41 424.16C132.79 423.82 147.52 420.33 148.41 419.94C148.92 419.72 180.26 405.06 181.61 404.21C181.9 404.02 185.72 401.02 192.39 395.87C235.32 362.74 374.6 255.11 461.39 191.87C484.66 174.94 504.05 161.31 516.47 153.51C530.3 144.77 555.2 124.81 577.85 106.93C580.41 104.93 582.864 102.93 585.21 100.93C605.78 83.8501 615.99 65.0901 615.61 37.6001" stroke="#939292" stroke-width="0.25" stroke-miterlimit="10"/>
<path d="M133 424.15C133.41 423.79 148 420.34 149 419.92C149.55 419.68 180.74 405.1 182.2 404.18C182.51 403.98 186.33 400.98 192.98 395.85C236.13 362.59 375.16 255.24 461.91 191.93C485.14 175.03 504.51 161.39 516.91 153.55C530.79 144.74 555.64 124.79 578.24 106.93C580.8 104.93 583.24 102.93 585.59 100.93C606 84.0001 616.1 65.0001 615.56 37.6001" stroke="#939292" stroke-width="0.25" stroke-miterlimit="10"/>
<path d="M133.601 424.15C134.051 423.76 148.601 420.36 149.601 419.91C150.191 419.65 181.221 405.14 182.781 404.15C183.121 403.94 186.931 400.94 193.561 395.83C236.911 362.44 375.691 255.37 462.451 192C485.631 175.12 504.981 161.48 517.451 153.59C531.371 144.72 556.171 124.79 578.721 106.93C581.281 104.93 583.721 102.93 586.061 100.93C606.331 84.0801 616.261 64.9301 615.561 37.5901" stroke="#949393" stroke-width="0.25" stroke-miterlimit="10"/>
<path d="M134.2 424.15C134.68 423.73 149.08 420.37 150.2 419.9C150.83 419.62 181.7 405.18 183.36 404.12C183.72 403.89 187.53 400.9 194.15 395.81C237.71 362.28 376.24 255.5 463 192.1C486.13 175.24 505.46 161.59 518 153.65C532 144.71 556.72 124.8 579.22 106.96C581.773 104.92 584.22 102.92 586.56 100.96C606.66 84.2301 616.46 64.8801 615.56 37.6201" stroke="#949493" stroke-width="0.25" stroke-miterlimit="10"/>
<path d="M134.8 424.15C135.31 423.7 149.6 420.39 150.75 419.88C151.42 419.59 182.13 405.22 183.9 404.1C184.28 403.85 188.09 400.86 194.69 395.79C238.51 362.13 376.79 255.63 463.56 192.18C486.65 175.35 505.96 161.7 518.48 153.71C532.48 144.71 557.19 124.8 579.64 106.97C582.19 104.97 584.64 102.97 586.97 100.97C606.92 84.3501 616.57 64.8101 615.55 37.6101" stroke="#959494" stroke-width="0.25" stroke-miterlimit="10"/>
<path d="M135.4 424.15C135.94 423.67 150.13 420.4 151.34 419.87C152.05 419.56 182.6 405.26 184.47 404.07C184.87 403.81 188.68 400.82 195.26 395.77C239.31 361.98 377.35 255.77 464.12 192.26C487.12 175.46 506.45 161.8 518.99 153.76C532.99 144.69 557.7 124.76 580.09 106.99C582.65 104.99 585.09 102.93 587.42 100.99C607.22 84.4799 616.73 64.7499 615.55 37.6299" stroke="#969595" stroke-width="0.25" stroke-miterlimit="10"/>
<path d="M136 424.14C136.56 423.65 150.65 420.42 151.93 419.85C152.68 419.53 183.07 405.3 185.04 404.04C185.47 403.77 189.28 400.78 195.84 395.75C240.11 361.83 377.9 255.89 464.67 192.35C487.67 175.56 506.94 161.9 519.51 153.82C533.59 144.68 558.21 124.82 580.51 107C583.06 105 585.51 102.94 587.83 101C607.48 84.6099 616.83 64.6799 615.51 37.6299" stroke="#969595" stroke-width="0.25" stroke-miterlimit="10"/>
<path d="M136.601 424.14C137.191 423.62 151.171 420.43 152.521 419.84C153.311 419.49 183.521 405.33 185.611 404.01C186.061 403.73 189.871 400.74 196.411 395.73C240.911 361.67 378.411 256.02 465.231 192.43C488.181 175.67 507.451 162.03 520.021 153.87C534.171 144.69 558.721 124.81 581.021 107.02C583.571 105.02 586.021 102.96 588.341 101.02C607.821 84.7499 617.061 64.6199 615.561 37.6499" stroke="#979696" stroke-width="0.25" stroke-miterlimit="10"/>
<path d="M137.2 424.14C137.82 423.59 151.69 420.45 153.11 419.82C153.94 419.46 184.01 405.37 186.19 403.99C186.66 403.68 190.46 400.7 196.99 395.71C241.71 361.52 378.99 256.16 465.79 192.51C488.69 175.78 507.94 162.13 520.54 153.93C534.73 144.68 559.23 124.81 581.47 107.03C584.02 105.03 586.47 102.97 588.78 101.03C608.11 84.8799 617.21 64.5599 615.55 37.6499" stroke="#989796" stroke-width="0.25" stroke-miterlimit="10"/>
<path d="M137.8 424.14C138.45 423.56 152.21 420.46 153.7 419.81C154.56 419.43 184.48 405.41 186.76 403.96C187.26 403.64 191.06 400.66 197.56 395.7C242.51 361.37 379.56 256.29 466.34 192.6C489.2 175.89 508.43 162.23 521.05 153.98C535.28 144.67 559.74 124.82 581.93 107.05C584.47 105.05 586.93 102.98 589.23 101.05C608.41 85.0499 617.36 64.4999 615.55 37.6599" stroke="#989797" stroke-width="0.25" stroke-miterlimit="10"/>
<path d="M138.39 424.14C139.08 423.53 152.73 420.48 154.29 419.8C155.19 419.4 184.95 405.45 187.29 403.93C187.81 403.6 191.61 400.63 198.1 395.68C243.27 361.22 380.1 256.42 466.86 192.68C489.67 176 508.86 162.34 521.53 154.03C535.8 144.66 560.21 124.82 582.35 107.03C584.89 105.03 587.35 102.96 589.64 101.03C608.64 85.1099 617.48 64.3999 615.51 37.6399" stroke="#999898" stroke-width="0.25" stroke-miterlimit="10"/>
<path d="M139 424.13C139.72 423.5 153.27 420.49 154.89 419.78C155.83 419.37 185.43 405.49 187.89 403.9C188.43 403.56 192.22 400.59 198.69 395.66C244.09 361.06 380.63 256.55 467.44 192.76C490.2 176.1 509.44 162.44 522.06 154.09C536.38 144.65 560.74 124.82 582.83 107.09C585.37 105.09 587.78 103.01 590.12 101.09C608.98 85.2899 617.66 64.3799 615.53 37.6899" stroke="#9A9898" stroke-width="0.25" stroke-miterlimit="10"/>
<path d="M139.59 424.13C140.33 423.48 153.78 420.51 155.47 419.77C156.47 419.34 185.89 405.53 188.47 403.88C189.03 403.52 192.83 400.55 199.28 395.64C244.9 360.91 381.19 256.64 468 192.85C490.72 176.21 509.89 162.54 522.59 154.14C536.95 144.64 561.26 124.82 583.3 107.14C585.83 105.08 588.24 103.05 590.58 101.14C609.29 85.46 617.83 64.35 615.58 37.74" stroke="#9A9999" stroke-width="0.25" stroke-miterlimit="10"/>
<path d="M140.19 424.13C140.96 423.45 154.3 420.52 156.06 419.75C157.06 419.3 186.36 405.56 189.06 403.85C189.65 403.48 193.44 400.51 199.87 395.62C245.72 360.76 381.76 256.81 468.58 192.93C491.25 176.32 510.4 162.65 523.12 154.2C537.53 144.63 561.78 124.83 583.78 107.11C586.31 105.11 588.71 103.02 591.05 101.11C609.6 85.4999 618 64.1999 615.55 37.6499" stroke="#9B9A9A" stroke-width="0.25" stroke-miterlimit="10"/>
<path d="M140.79 424.13C141.59 423.42 154.79 420.54 156.65 419.74C157.71 419.27 186.83 405.6 189.65 403.82C190.25 403.43 194.04 400.47 200.46 395.6C246.53 360.6 382.33 256.94 469.14 193.01C491.77 176.43 510.9 162.75 523.65 154.25C538.09 144.62 562.3 124.83 584.25 107.13C586.78 105.07 589.18 103.03 591.51 101.07C609.92 85.6199 618.18 64.1299 615.51 37.6599" stroke="#9C9A9A" stroke-width="0.25" stroke-miterlimit="10"/>
<path d="M141.39 424.12C142.22 423.39 155.39 420.55 157.24 419.72C158.34 419.24 187.3 405.64 190.24 403.79C190.87 403.39 194.66 400.43 201.06 395.58C247.35 360.46 382.9 257.08 469.72 193.1C492.3 176.54 511.42 162.85 524.18 154.31C538.67 144.6 562.87 124.88 584.73 107.14C587.26 105.14 589.65 103.05 591.99 101.08C610.24 85.7499 618.35 64.0799 615.58 37.6599" stroke="#9C9B9B" stroke-width="0.25" stroke-miterlimit="10"/>
<path d="M142 424.12C142.86 423.36 155.88 420.57 157.84 419.71C158.98 419.21 187.78 405.71 190.78 403.76C191.44 403.35 195.22 400.39 201.6 395.56C248.13 360.31 383.42 257.21 470.25 193.18C492.78 176.64 511.88 162.96 524.67 154.36C539.2 144.59 563.35 124.88 585.16 107.16C587.68 105.1 590.07 103.06 592.41 101.09C610.5 85.8799 618.48 63.9899 615.55 37.6699" stroke="#9D9C9B" stroke-width="0.25" stroke-miterlimit="10"/>
<path d="M142.59 424.12C143.48 423.33 156.39 420.59 158.42 419.69C159.59 419.18 188.23 405.69 191.35 403.74C192.02 403.31 195.81 400.35 202.17 395.54C248.92 360.15 384 257.34 470.79 193.26C493.28 176.75 512.36 163.06 525.17 154.41C539.75 144.58 563.85 124.89 585.61 107.17C588.13 105.17 590.52 103.07 592.85 101.1C610.79 85.9999 618.63 63.9299 615.54 37.6699" stroke="#9E9C9C" stroke-width="0.25" stroke-miterlimit="10"/>
<path d="M143.19 424.12C144.11 423.31 156.91 420.6 159.01 419.68C160.22 419.15 188.7 405.76 191.92 403.68C192.62 403.24 196.4 400.29 202.74 395.49C249.74 359.97 384.51 257.49 471.35 193.31C493.79 176.83 512.85 163.13 525.69 154.44C540.31 144.54 564.36 124.86 586.07 107.16C588.59 105.1 590.97 103.05 593.3 101.09C611.09 86.0899 618.79 63.8299 615.54 37.6499" stroke="#9E9D9D" stroke-width="0.25" stroke-miterlimit="10"/>
<path d="M143.78 424.12C144.73 423.28 157.43 420.62 159.6 419.67C160.85 419.11 189.17 405.8 192.49 403.67C193.21 403.21 196.99 400.27 203.32 395.49C250.52 359.84 385.06 257.59 471.9 193.42C494.3 176.96 513.34 163.25 526.2 154.51C540.86 144.51 564.87 124.88 586.53 107.19C589.04 105.19 591.42 103.08 593.76 101.12C611.39 86.2699 619 63.7899 615.54 37.6799" stroke="#9F9D9D" stroke-width="0.25" stroke-miterlimit="10"/>
<path d="M144.38 424.11C145.38 423.25 157.95 420.63 160.19 419.65C161.48 419.08 189.64 405.83 193.07 403.65C193.81 403.18 197.59 400.24 203.89 395.48C251.32 359.7 385.61 257.73 472.46 193.48C494.81 177.05 513.83 163.34 526.72 154.55C541.42 144.55 565.38 124.87 586.99 107.19C589.5 105.13 591.88 103.07 594.21 101.11C611.69 86.3699 619.1 63.6899 615.54 37.6599" stroke="#A09E9E" stroke-width="0.25" stroke-miterlimit="10"/>
<path d="M145 424.11C146 423.22 158.5 420.65 160.79 419.64C162.13 419.05 190.13 405.87 193.66 403.64C194.42 403.15 198.2 400.21 204.49 395.47C252.12 359.55 386.16 257.86 473 193.59C495.3 177.18 514.3 163.47 527.21 154.59C541.96 144.5 565.87 124.86 587.43 107.19C589.94 105.13 592.31 103.07 594.64 101.11C611.97 86.4899 619.24 63.6099 615.52 37.6499" stroke="#A09F9F" stroke-width="0.25" stroke-miterlimit="10"/>
<path d="M145.58 424.11C146.58 423.19 159 420.66 161.36 419.62C162.74 419.02 190.58 405.91 194.21 403.62C195 403.12 198.78 400.18 205.04 395.46C252.92 359.46 386.71 258.01 473.57 193.7C495.83 177.31 514.81 163.59 527.75 154.7C542.54 144.54 566.4 124.91 587.91 107.26C590.41 105.2 592.79 103.13 595.11 101.17C612.29 86.6599 619.42 63.6 615.54 37.7" stroke="#A19F9F" stroke-width="0.25" stroke-miterlimit="10"/>
<path d="M146.18 424.11C147.25 423.16 159.52 420.68 161.95 419.61C163.37 418.99 191.05 405.95 194.79 403.61C195.6 403.1 199.37 400.16 205.62 395.46C253.73 359.29 387.27 258.17 474.13 193.8C496.34 177.44 515.3 163.71 528.26 154.8C543.09 144.57 566.91 124.97 588.37 107.32C590.87 105.26 593.24 103.2 595.57 101.23C612.57 86.84 619.57 63.58 615.57 37.76" stroke="#A2A0A0" stroke-width="0.25" stroke-miterlimit="10"/>
<path d="M146.78 424.1C147.88 423.1 160.04 420.69 162.54 419.59C164 418.96 191.54 405.99 195.36 403.59C196.19 403.07 199.96 400.13 206.2 395.45C254.53 359.15 387.82 258.31 474.68 193.89C496.86 177.56 515.79 163.83 528.78 154.84C543.65 144.55 567.42 124.96 588.78 107.33C591.29 105.27 593.65 103.2 595.98 101.23C612.84 86.96 619.7 63.5 615.5 37.75" stroke="#A2A1A0" stroke-width="0.25" stroke-miterlimit="10"/>
<path d="M147.38 424.1C148.5 423.1 160.56 420.71 163.13 419.58C164.62 418.92 191.99 406.03 195.93 403.52C196.79 402.97 200.56 400.05 206.77 395.38C255.33 358.95 388.37 258.38 475.24 193.93C497.37 177.61 516.24 163.88 529.24 154.85C544.16 144.49 567.88 124.92 589.24 107.29C591.74 105.23 594.11 103.16 596.43 101.19C613.18 87 619.89 63.38 615.54 37.71" stroke="#A3A1A1" stroke-width="0.25" stroke-miterlimit="10"/>
<path d="M148 424.1C149.15 423.1 161.1 420.72 163.74 419.56C165.27 418.89 192.48 406.07 196.53 403.49C197.4 402.93 201.17 400.01 207.37 395.37C256.13 358.8 388.92 258.52 475.8 194C497.88 177.71 516.8 164 529.8 154.89C544.8 144.47 568.43 124.89 589.73 107.3C592.23 105.23 594.59 103.16 596.91 101.19C613.47 87.19 620.04 63.3 615.52 37.7" stroke="#A4A2A2" stroke-width="0.25" stroke-miterlimit="10"/>
<path d="M148.57 424.1C149.76 423.05 161.57 420.74 164.31 419.55C165.88 418.86 192.93 406.1 197.08 403.46C197.98 402.89 201.75 399.97 207.92 395.35C256.92 358.65 389.47 258.65 476.35 194.09C498.35 177.83 517.27 164.09 530.35 154.96C545.35 144.47 568.98 124.96 590.23 107.32C592.73 105.26 595.08 103.18 597.41 101.21C613.81 87.3 620.24 63.21 615.56 37.72" stroke="#A4A3A2" stroke-width="0.25" stroke-miterlimit="10"/>
<path d="M149.17 424.1C150.39 423.02 162.17 420.75 164.9 419.54C166.51 418.83 193.4 406.14 197.65 403.43C198.57 402.85 202.34 399.93 208.5 395.33C257.74 358.5 390 258.78 476.91 194.18C498.91 177.94 517.76 164.18 530.84 155.01C545.84 144.46 569.46 124.93 590.66 107.34C593.16 105.27 595.51 103.19 597.83 101.22C614.08 87.43 620.37 63.22 615.53 37.72" stroke="#A5A3A3" stroke-width="0.25" stroke-miterlimit="10"/>
<path d="M149.771 424.09C151.021 422.99 162.651 420.77 165.491 419.52C167.141 418.8 193.87 406.18 198.23 403.41C199.17 402.81 202.931 399.89 209.071 395.31C258.541 358.31 390.571 258.91 477.471 194.31C499.411 178.1 518.25 164.31 531.35 155.12C546.44 144.49 569.97 124.98 591.12 107.4C593.61 105.33 595.961 103.25 598.281 101.28C614.381 87.61 620.531 63.16 615.531 37.78" stroke="#A6A4A4" stroke-width="0.25" stroke-miterlimit="10"/>
<path d="M150.37 424.09C151.65 422.96 163.17 420.78 166.08 419.51C167.77 418.77 194.34 406.22 198.8 403.38C199.8 402.76 203.53 399.86 209.65 395.29C259.34 358.2 391.12 259 478 194.34C499.9 178.15 518.72 164.34 531.85 155.12C546.98 144.43 570.46 124.93 591.56 107.37C594.05 105.3 596.39 103.22 598.71 101.24C614.66 87.69 620.66 63.04 615.51 37.73" stroke="#A6A5A4" stroke-width="0.25" stroke-miterlimit="10"/>
<path d="M151 424.09C152.31 422.94 163.72 420.8 166.7 419.49C168.43 418.73 194.84 406.26 199.4 403.35C200.4 402.72 204.15 399.82 210.25 395.27C260.18 358.05 391.7 259.18 478.61 194.43C500.46 178.26 519.26 164.5 532.41 155.17C547.55 144.42 571 124.94 592 107.38C594.49 105.31 596.83 103.23 599.15 101.26C615 87.82 620.84 63 615.53 37.74" stroke="#A7A5A5" stroke-width="0.25" stroke-miterlimit="10"/>
<path d="M151.57 424.09C152.9 422.91 164.22 420.81 167.26 419.48C169.03 418.7 195.26 406.3 199.95 403.32C200.95 402.68 204.72 399.78 210.8 395.25C261 357.9 392.23 259.31 479.13 194.51C500.94 178.37 519.72 164.6 532.9 155.23C548.11 144.41 571.5 124.94 592.5 107.4C594.98 105.33 597.32 103.24 599.64 101.27C615.28 88 621 62.91 615.53 37.74" stroke="#A8A6A6" stroke-width="0.25" stroke-miterlimit="10"/>
<path d="M152.17 424.09C153.53 422.88 164.74 420.83 167.85 419.46C169.66 418.67 195.75 406.33 200.52 403.3C201.52 402.64 205.31 399.74 211.37 395.23C261.75 357.75 392.78 259.44 479.69 194.59C501.45 178.48 520.21 164.7 533.41 155.28C548.67 144.4 572 125 593 107.42C595.48 105.34 597.82 103.25 600.13 101.28C615.62 88.08 621.2 62.84 615.57 37.75" stroke="#A8A7A6" stroke-width="0.25" stroke-miterlimit="10"/>
<path d="M152.771 424.08C154.161 422.85 165.261 420.84 168.441 419.45C170.281 418.64 196.22 406.37 201.09 403.27C202.15 402.6 205.911 399.7 211.951 395.21C262.55 357.6 393.33 259.57 480.25 194.68C501.96 178.59 520.7 164.8 533.93 155.34C549.23 144.34 572.52 124.95 593.42 107.43C595.9 105.35 598.23 103.26 600.54 101.29C615.88 88.21 621.32 62.77 615.54 37.75" stroke="#A9A7A7" stroke-width="0.25" stroke-miterlimit="10"/>
<path d="M153.36 424.08C154.79 422.82 165.78 420.86 169.03 419.43C170.91 418.61 196.68 406.43 201.67 403.24C202.74 402.55 206.5 399.66 212.53 395.19C263.36 357.45 393.88 259.7 480.8 194.76C502.47 178.69 521.19 164.91 534.44 155.39C549.78 144.39 573.03 124.95 593.88 107.45C596.35 105.37 598.68 103.27 601 101.3C616.18 88.3 621.48 62.7 615.53 37.75" stroke="#AAA8A8" stroke-width="0.25" stroke-miterlimit="10"/>
<path d="M154 424.08C155.46 422.79 166.34 420.88 169.66 419.42C171.58 418.58 197.19 406.42 202.28 403.21C203.38 402.51 207.13 399.63 213.14 395.21C264.2 357.34 394.47 259.87 481.4 194.88C503 178.8 521.68 165 535 155.45C550.38 144.36 573.58 124.96 594.38 107.45C596.85 105.37 599.18 103.27 601.49 101.3C616.49 88.46 621.67 62.63 615.57 37.75" stroke="#AAA9A8" stroke-width="0.25" stroke-miterlimit="10"/>
<path d="M154.561 424.08C156.051 422.77 166.831 420.89 170.211 419.41C172.211 418.54 197.621 406.49 202.811 403.19C203.941 402.47 207.691 399.59 213.681 395.19C265.001 357.16 395.001 260 481.911 194.93C503.491 178.93 522.171 165.11 535.471 155.5C550.901 144.35 574.051 124.96 594.801 107.5C597.271 105.42 599.591 103.32 601.901 101.34C616.781 88.62 621.791 62.59 615.521 37.78" stroke="#ABA9A9" stroke-width="0.25" stroke-miterlimit="10"/>
<path d="M155.16 424.07C156.67 422.74 167.35 420.91 170.8 419.39C172.8 418.51 198.09 406.53 203.38 403.16C204.53 402.43 208.28 399.55 214.25 395.16C265.77 357 395.53 260.09 482.47 195C504 179 522.67 165.2 535.99 155.54C551.46 144.33 574.56 124.95 595.26 107.48C597.72 105.4 600.04 103.3 602.35 101.32C617.08 88.74 622 62.5 615.52 37.77" stroke="#ACAAAA" stroke-width="0.25" stroke-miterlimit="10"/>
<path d="M155.76 424.07C157.3 422.71 167.87 420.92 171.39 419.38C173.39 418.48 198.56 406.57 203.96 403.13C205.13 402.39 208.88 399.51 214.83 395.13C266.57 356.88 396.08 260.25 483.03 195.13C504.51 179.13 523.16 165.36 536.5 155.65C552.01 144.37 575.07 125.01 595.72 107.55C598.18 105.46 600.5 103.36 602.81 101.38C617.38 88.9101 622.11 62.4701 615.52 37.8101" stroke="#ADABAA" stroke-width="0.25" stroke-miterlimit="10"/>
<path d="M156.36 424.07C157.93 422.68 168.36 420.94 171.98 419.36C174.06 418.45 199.03 406.6 204.53 403.1C205.72 402.35 209.47 399.47 215.4 395.1C267.4 356.72 396.63 260.37 483.58 195.19C505.02 179.19 523.65 165.43 537.02 155.67C552.57 144.32 575.58 124.98 596.18 107.53C598.64 105.45 600.95 103.34 603.26 101.36C617.68 89.01 622.26 62.36 615.52 37.79" stroke="#ADABAB" stroke-width="0.25" stroke-miterlimit="10"/>
<path d="M157 424.07C158.6 422.65 168.95 420.95 172.61 419.35C174.73 418.42 199.54 406.64 205.14 403.08C206.36 402.3 210.14 399.44 216.02 395.08C268.22 356.57 397.23 260.5 484.18 195.27C505.57 179.35 524.18 165.53 537.57 155.73C553.17 144.31 576.13 124.98 596.68 107.55C599.13 105.46 601.44 103.35 603.75 101.37C618 89.13 622.42 62.3 615.52 37.78" stroke="#AEACAC" stroke-width="0.25" stroke-miterlimit="10"/>
<path d="M157.561 424.07C159.191 422.62 169.431 420.97 173.151 419.33C175.311 418.39 199.971 406.68 205.681 403.05C206.911 402.26 210.681 399.4 216.551 395.05C269.001 356.41 397.741 260.62 484.691 195.34C506.041 179.45 524.631 165.62 538.051 155.77C553.691 144.29 576.601 124.98 597.101 107.55C599.551 105.46 601.861 103.35 604.161 101.37C618.281 89.26 622.581 62.23 615.521 37.79" stroke="#AFADAC" stroke-width="0.25" stroke-miterlimit="10"/>
<path d="M158.15 424.06C159.82 422.6 169.96 420.98 173.74 419.32C175.94 418.32 200.44 406.72 206.25 403.02C207.51 402.22 211.25 399.36 217.13 395.02C269.79 356.25 398.29 260.73 485.25 195.41C506.55 179.54 525.12 165.7 538.56 155.81C554.24 144.26 577.11 124.96 597.56 107.55C600.02 105.46 602.32 103.34 604.63 101.36C618.63 89.36 622.75 62.14 615.53 37.77" stroke="#AFADAD" stroke-width="0.25" stroke-miterlimit="10"/>
<path d="M158.75 424.06C160.45 422.57 170.48 421 174.33 419.3C176.57 418.3 200.91 406.76 206.82 402.99C208.11 402.18 211.82 399.32 217.71 394.99C270.59 356.09 398.84 260.85 485.81 195.48C507.06 179.63 525.61 165.8 539.08 155.85C554.8 144.24 577.62 124.95 598.01 107.55C600.46 105.46 602.76 103.34 605.07 101.37C618.88 89.49 622.9 62.06 615.52 37.77" stroke="#B0AEAE" stroke-width="0.25" stroke-miterlimit="10"/>
<path d="M159.351 424.06C161.071 422.54 171.001 421.01 174.921 419.29C177.201 418.29 201.381 406.8 207.401 402.97C208.701 402.14 212.401 399.28 218.281 394.97C271.401 355.97 399.391 260.97 486.361 195.56C507.571 179.74 526.101 165.9 539.591 155.9C555.361 144.22 578.131 124.96 598.471 107.57C600.921 105.48 603.221 103.36 605.471 101.38C619.131 89.63 623.011 62 615.471 37.77" stroke="#B1AFAE" stroke-width="0.25" stroke-miterlimit="10"/>
<path d="M160 424.06C161.75 422.51 171.57 421.06 175.56 419.28C177.88 418.28 201.9 406.84 208.02 402.94C209.35 402.09 213.09 399.25 218.91 394.94C272.25 355.78 399.99 261.11 486.97 195.63C508.08 179.88 526.59 166 540.11 156C555.92 144.25 578.64 125 598.93 107.62C601.38 105.53 603.67 103.41 605.93 101.43C619.49 89.79 623.21 62 615.52 37.8" stroke="#B1AFAF" stroke-width="0.25" stroke-miterlimit="10"/>
<path d="M160.55 424.06C162.33 422.48 172.04 421.06 176.1 419.26C178.46 418.26 202.32 406.87 208.54 402.91C209.89 402.05 213.63 399.21 219.43 394.91C273 355.68 400.49 261.28 487.48 195.76C508.59 179.99 527.08 166.13 540.62 156.04C556.47 144.23 579.15 125.04 599.39 107.63C601.83 105.53 604.13 103.41 606.39 101.43C619.75 89.9201 623.33 61.8901 615.48 37.8101" stroke="#B2B0B0" stroke-width="0.25" stroke-miterlimit="10"/>
<path d="M161.15 424.05C162.96 422.45 172.57 421.05 176.69 419.25C179.09 418.2 202.79 406.91 209.12 402.88C210.49 402.01 214.23 399.17 220.01 394.94C273.81 355.53 400.91 261.23 488.01 195.84C509.01 180.05 527.55 166.24 541.12 156.1C557.01 144.22 579.64 125 599.83 107.64C602.27 105.55 604.56 103.42 606.83 101.44C620.04 90.0501 623.48 61.8201 615.46 37.8101" stroke="#B3B1B1" stroke-width="0.25" stroke-miterlimit="10"/>
<path d="M161.75 424.05C163.59 422.43 173.09 421.05 177.28 419.23C179.72 418.16 203.28 406.95 209.69 402.86C211.08 401.97 214.82 399.13 220.58 394.92C274.58 355.38 401.46 261.36 488.58 195.92C509.58 180.16 528.05 166.34 541.64 156.15C557.58 144.21 580.16 125 600.3 107.66C602.74 105.56 605.02 103.43 607.3 101.45C620.36 90.1801 623.66 61.7501 615.48 37.8201" stroke="#B3B2B1" stroke-width="0.25" stroke-miterlimit="10"/>
<path d="M162.351 424.05C164.221 422.4 173.611 421.05 177.871 419.22C180.341 418.13 203.731 406.99 210.261 402.83C211.681 401.93 215.421 399.1 221.161 394.9C275.421 355.24 402.001 261.49 489.141 196C510.091 180.26 528.551 166.43 542.141 156.2C558.141 144.2 580.651 124.99 600.741 107.66C603.171 105.57 605.461 103.43 607.741 101.45C620.651 90.3101 623.811 61.6801 615.471 37.8101" stroke="#B4B2B2" stroke-width="0.25" stroke-miterlimit="10"/>
<path d="M162.94 424.05C164.84 422.37 174.13 421.1 178.46 419.2C180.97 418.1 204.2 407.03 210.84 402.8C212.27 401.89 216.01 399.06 221.73 394.88C276.23 355.09 402.56 261.62 489.73 196.09C510.63 180.38 529.07 166.54 542.73 156.26C558.73 144.18 581.24 125.01 601.28 107.69C603.71 105.59 605.99 103.45 608.28 101.47C621.03 90.4701 624.05 61.6201 615.55 37.8301" stroke="#B5B3B3" stroke-width="0.25" stroke-miterlimit="10"/>
<path d="M163.54 424C165.47 422.3 174.65 421.08 179.05 419.15C181.6 418.03 204.67 407.03 211.41 402.73C212.87 401.8 216.61 398.98 222.31 394.82C277 355 403.11 261.75 490.26 196.17C511.1 180.48 529.53 166.64 543.2 156.31C559.26 144.17 581.7 125.01 601.69 107.7C604.12 105.6 606.39 103.47 608.69 101.48C621.29 90.5801 624.16 61.5501 615.51 37.8301" stroke="#B6B4B3" stroke-width="0.25" stroke-miterlimit="10"/>
<path d="M164.14 424C166.14 422.27 175.14 421.1 179.64 419.13C182.23 418 205.14 407.06 211.98 402.71C213.47 401.76 217.2 398.94 222.89 394.8C277.84 354.8 403.66 261.8 490.81 196.22C511.61 180.55 530.02 166.71 543.71 156.33C559.82 144.12 582.21 124.97 602.15 107.68C604.58 105.58 606.85 103.44 609.15 101.45C621.61 90.67 624.33 61.45 615.52 37.8" stroke="#B6B4B4" stroke-width="0.25" stroke-miterlimit="10"/>
<path d="M164.74 424C166.74 422.24 175.74 421.11 180.23 419.12C182.86 417.97 205.6 407.12 212.56 402.68C214.06 401.68 217.8 398.91 223.46 394.78C278.64 354.65 404.21 262 491.37 196.34C512.12 180.7 530.51 166.85 544.23 156.42C560.37 144.15 582.72 125.02 602.61 107.74C605.03 105.63 607.3 103.49 609.61 101.5C621.92 90.8501 624.5 61.4201 615.53 37.8401" stroke="#B7B5B5" stroke-width="0.25" stroke-miterlimit="10"/>
<path d="M165.34 424C167.34 422.22 176.22 421.13 180.82 419.11C183.49 417.93 206.07 407.11 213.13 402.65C214.66 401.65 218.39 398.87 224.04 394.76C279.45 354.47 404.76 262.1 491.92 196.38C512.63 180.81 531 167 544.74 156.48C560.93 144.13 583.23 125.02 603.07 107.75C605.49 105.64 607.75 103.5 610.07 101.51C622.2 91.0001 624.64 61.3501 615.51 37.8501" stroke="#B8B6B5" stroke-width="0.25" stroke-miterlimit="10"/>
<path d="M165.94 424C167.99 422.19 176.74 421.14 181.41 419.09C184.12 417.9 206.54 407.18 213.7 402.62C215.25 401.62 218.99 398.83 224.61 394.74C280.25 354.32 405.31 262.24 492.48 196.47C513.14 180.88 531.48 167.01 545.26 156.47C561.49 144.06 583.74 124.96 603.53 107.71C605.95 105.6 608.21 103.45 610.53 101.46C622.53 91.05 624.83 61.22 615.53 37.79" stroke="#B9B6B6" stroke-width="0.25" stroke-miterlimit="10"/>
<path d="M166.54 424C168.62 422.17 177.26 421.17 182 419.09C184.75 417.88 207 407.23 214.28 402.61C215.85 401.61 219.58 398.8 225.19 394.73C281.06 354.22 405.86 262.41 493 196.59C513.61 181.02 531.95 167.16 545.73 156.59C562.05 144.11 584.25 125 604 107.78C606.41 105.67 608.67 103.52 611 101.53C622.85 91.2501 625 61.2101 615.56 37.8601" stroke="#B9B7B7" stroke-width="0.25" stroke-miterlimit="10"/>
<path d="M167.14 424C169.24 422.14 177.78 421.18 182.59 419.07C185.37 417.85 207.48 407.27 214.85 402.58C216.44 401.58 220.17 398.77 225.76 394.71C281.87 354.04 406.41 262.51 493.59 196.64C514.16 181.1 532.48 167.23 546.29 156.64C562.6 144.1 584.76 125 604.45 107.8C606.86 105.69 609.12 103.53 611.4 101.55C623.11 91.3801 625.11 61.1401 615.51 37.8601" stroke="#BAB8B7" stroke-width="0.25" stroke-miterlimit="10"/>
<path d="M167.73 424C169.87 422.11 178.31 421.2 183.18 419.06C186 417.82 207.95 407.31 215.42 402.55C217.04 401.55 220.77 398.73 226.34 394.7C282.67 353.9 406.97 262.64 494.15 196.7C514.67 181.18 532.97 167.3 546.8 156.63C563.16 144.03 585.27 124.97 604.91 107.75C607.32 105.64 609.57 103.49 611.91 101.5C623.46 91.5 625.32 61.02 615.55 37.8" stroke="#BBB9B8" stroke-width="0.25" stroke-miterlimit="10"/>
<path d="M168.33 424C170.5 422.08 178.83 421.21 183.77 419C186.63 417.75 208.42 407.3 216 402.48C217.64 401.48 221.36 398.65 226.91 394.64C283.48 353.78 407.52 262.8 494.7 196.84C515.18 181.35 533.46 167.46 547.32 156.75C563.72 144.07 585.78 125.03 605.32 107.83C607.72 105.71 609.97 103.56 612.26 101.57C623.66 91.6501 625.38 61.0101 615.45 37.8701" stroke="#BBB9B9" stroke-width="0.25" stroke-miterlimit="10"/>
<path d="M168.93 424C171.13 422.07 179.35 421.24 184.36 419C187.26 417.72 208.89 407.35 216.57 402.47C218.23 401.41 221.96 398.62 227.49 394.63C284.29 353.58 408.07 262.87 495.26 196.86C515.7 181.39 533.95 167.5 547.83 156.74C564.27 144 586.29 124.98 605.83 107.74C608.23 105.63 610.48 103.47 612.76 101.48C624.01 91.68 625.59 60.84 615.5 37.77" stroke="#BCBABA" stroke-width="0.25" stroke-miterlimit="10"/>
<path d="M169.53 424C171.76 422 179.87 421.25 184.95 419C187.89 417.71 209.36 407.41 217.14 402.46C218.83 401.38 222.55 398.61 228.06 394.63C285.06 353.45 408.62 263.02 495.82 196.97C516.21 181.52 534.44 167.63 548.35 156.82C564.83 144.01 586.79 125 606.28 107.82C608.69 105.7 610.93 103.54 613.21 101.55C624.32 91.8701 625.74 60.8301 615.5 37.8401" stroke="#BDBBBA" stroke-width="0.25" stroke-miterlimit="10"/>
<path d="M170.13 424C172.39 422 180.39 421.27 185.53 419C188.53 417.69 209.83 407.46 217.72 402.44C219.42 401.35 223.15 398.58 228.64 394.62C285.9 353.32 409.17 263.16 496.37 197.06C516.72 181.64 534.93 167.74 548.86 156.88C565.39 144.01 587.3 125.01 606.74 107.88C609.14 105.76 611.38 103.6 613.67 101.61C624.67 92.0599 625.9 60.8099 615.5 37.8899" stroke="#BEBBBB" stroke-width="0.25" stroke-miterlimit="10"/>
<path d="M170.73 424C173.01 422 180.92 421.28 186.12 419C189.12 417.67 210.3 407.51 218.29 402.42C220.02 401.32 223.74 398.55 229.22 394.61C286.71 353.19 409.72 263.3 496.93 197.15C517.23 181.76 535.42 167.85 549.38 156.95C566 144 587.811 125 607.201 107.89C609.601 105.77 611.84 103.6 614.12 101.61C624.92 92.1799 626.06 60.7399 615.5 37.8899" stroke="#BEBCBC" stroke-width="0.25" stroke-miterlimit="10"/>
<path d="M171.33 424C173.64 422 181.44 421.3 186.71 419C189.78 417.66 210.77 407.57 218.86 402.41C220.61 401.3 224.34 398.53 229.79 394.61C287.52 353.06 410.27 263.45 497.49 197.26C517.74 181.89 535.91 167.97 549.89 157.02C566.5 144.02 588.32 125.02 607.66 107.9C610.06 105.78 612.29 103.61 614.57 101.62C625.22 92.3099 626.22 60.6699 615.5 37.8899" stroke="#BFBDBC" stroke-width="0.25" stroke-miterlimit="10"/>
<path d="M171.93 424C174.27 421.93 181.93 421.32 187.3 419C190.4 417.63 211.24 407.62 219.44 402.4C221.21 401.27 224.93 398.51 230.37 394.6C288.32 352.93 410.82 263.6 498.04 197.35C518.25 182 536.4 168.08 550.41 157.08C567.06 144.01 588.83 125.08 608.12 107.93C610.51 105.81 612.74 103.63 615.02 101.64C625.53 92.4599 626.38 60.6399 615.5 37.9099" stroke="#C0BEBD" stroke-width="0.25" stroke-miterlimit="10"/>
<path d="M172.521 424C174.901 421.9 182.521 421.34 187.891 419C191.031 417.62 211.71 407.67 220.01 402.39C221.81 401.25 225.531 398.49 230.941 394.6C289.131 352.81 411.371 263.74 498.601 197.45C518.761 182.13 536.89 168.21 550.92 157.16C567.62 144.02 589.341 125.08 608.581 107.96C610.971 105.84 613.2 103.67 615.48 101.67C625.83 92.6099 626.48 60.5599 615.48 37.9299" stroke="#C1BEBE" stroke-width="0.25" stroke-miterlimit="10"/>
<path d="M173.12 424C175.53 421.88 183 421.35 188.48 418.95C191.66 417.55 212.18 407.67 220.58 402.32C222.4 401.16 226.12 398.41 231.52 394.54C289.94 352.62 411.92 263.84 499.15 197.54C519.27 182.24 537.38 168.31 551.44 157.21C568.17 144 589.85 125.05 609 108C611.39 105.87 613.61 103.7 615.89 101.7C626.09 92.77 626.65 60.52 615.46 37.96" stroke="#C1BFBF" stroke-width="0.25" stroke-miterlimit="10"/>
<path d="M173.72 424C176.16 421.85 183.53 421.37 189.07 418.93C192.29 417.52 212.65 407.71 221.15 402.29C223 401.12 226.72 398.37 232.09 394.52C290.75 352.52 412.47 263.97 499.71 197.58C519.78 182.31 537.87 168.37 551.95 157.23C568.73 144 590.36 125.06 609.5 108C611.88 105.88 614.1 103.7 616.38 101.7C626.44 92.8899 626.85 60.44 615.5 37.95" stroke="#C2C0BF" stroke-width="0.25" stroke-miterlimit="10"/>
<path d="M174.32 424C176.79 421.82 184.05 421.38 189.66 418.92C192.92 417.49 213.12 407.75 221.73 402.27C223.59 401.08 227.31 398.34 232.67 394.5C291.55 352.34 413.02 264.1 500.27 197.66C520.27 182.42 538.36 168.47 552.47 157.28C569.29 144 590.87 125.06 610 108C612.38 105.87 614.6 103.69 616.87 101.69C626.74 92.9999 627 60.3299 615.49 37.9199" stroke="#C3C1C0" stroke-width="0.25" stroke-miterlimit="10"/>
<path d="M174.92 424C177.41 421.8 184.57 421.41 190.25 418.91C193.55 417.47 213.59 407.8 222.3 402.25C224.19 401.05 227.91 398.31 233.24 394.49C292.36 352.21 413.58 264.24 500.82 197.76C520.82 182.53 538.82 168.58 552.98 157.35C569.84 143.94 591.38 125.06 610.42 107.99C612.8 105.86 615.01 103.68 617.29 101.69C627.04 93.1199 627.17 60.2599 615.49 37.9199" stroke="#C4C1C1" stroke-width="0.25" stroke-miterlimit="10"/>
<path d="M175.521 424C178.041 421.77 185.09 421.43 190.84 418.9C194.18 417.43 214.061 407.84 222.84 402.22C224.75 401.01 228.47 398.22 233.79 394.47C293.14 352.06 414.101 264.37 501.351 197.84C521.281 182.64 539.35 168.69 553.47 157.4C570.37 143.92 591.86 125.07 610.85 108.01C613.22 105.88 615.441 103.69 617.711 101.7C627.321 93.2599 627.301 60.1899 615.461 37.9199" stroke="#C4C2C2" stroke-width="0.25" stroke-miterlimit="10"/>
<path d="M176.12 424C178.67 421.74 185.61 421.44 191.43 418.89C194.81 417.4 214.52 407.89 223.43 402.19C225.36 400.96 229.08 398.19 234.43 394.45C294 351.92 414.68 264.5 501.93 197.92C521.82 182.75 539.83 168.79 554.01 157.45C571.01 143.91 592.4 125.07 611.34 108.02C613.71 105.89 615.92 103.7 618.19 101.71C627.65 93.3899 627.48 60.1299 615.49 37.9299" stroke="#C5C3C2" stroke-width="0.25" stroke-miterlimit="10"/>
<path d="M176.72 424C179.3 421.72 186.13 421.46 192.02 418.87C195.43 417.37 215.02 407.87 224.02 402.17C226.02 400.92 229.69 398.17 234.97 394.43C294.79 351.78 415.23 264.64 502.49 198C522.33 182.86 540.32 168.89 554.49 157.51C571.49 143.9 592.87 125.07 611.76 108.04C614.13 105.91 616.33 103.72 618.6 101.72C627.91 93.5299 627.6 60.0599 615.45 37.9299" stroke="#C6C4C3" stroke-width="0.25" stroke-miterlimit="10"/>
<path d="M177.311 424C179.931 421.7 186.661 421.48 192.611 418.87C196.061 417.35 215.461 407.96 224.611 402.15C226.611 400.89 230.311 398.15 235.611 394.42C295.661 351.65 415.841 264.78 503.111 198.1C522.901 182.98 540.871 169 555.111 157.57C572.111 143.9 593.491 125.08 612.331 108.07C614.691 105.93 616.901 103.74 619.171 101.74C628.331 93.6699 627.871 60 615.561 37.95" stroke="#C7C4C4" stroke-width="0.25" stroke-miterlimit="10"/>
<path d="M177.91 424C180.56 421.67 187.18 421.5 193.2 418.85C196.69 417.32 215.93 408 225.2 402.12C227.2 400.85 230.91 398.12 236.2 394.41C296.49 351.51 416.41 264.91 503.68 198.18C523.43 183.08 541.38 169.1 555.68 157.63C572.75 143.88 594.04 125.09 612.84 108.08C615.2 105.94 617.4 103.75 619.67 101.75C628.67 93.81 628.08 59.93 615.61 37.95" stroke="#C7C5C5" stroke-width="0.25" stroke-miterlimit="10"/>
<path d="M178.51 424C181.18 421.64 187.7 421.51 193.79 418.84C197.32 417.29 216.4 408.04 225.79 402.09C227.79 400.81 231.53 398.09 236.79 394.39C297.31 351.39 416.97 265.04 504.25 198.26C523.95 183.19 541.88 169.2 556.16 157.68C573.28 143.87 594.52 125.09 613.27 108.1C615.63 105.96 617.82 103.76 620.09 101.76C628.96 93.94 628.21 59.87 615.58 37.96" stroke="#C8C6C5" stroke-width="0.25" stroke-miterlimit="10"/>
<path d="M179.11 424C181.81 421.61 188.22 421.53 194.38 418.82C197.95 417.25 216.87 408.08 226.31 402.07C228.36 400.76 232.07 398.07 237.31 394.37C298.06 351.23 417.48 265.17 504.75 198.37C524.41 183.32 542.32 169.37 556.63 157.76C573.78 143.88 594.98 125.11 613.63 108.13C615.98 105.99 618.18 103.79 620.44 101.79C629.16 94.1 628.26 59.79 615.44 37.98" stroke="#C9C7C6" stroke-width="0.25" stroke-miterlimit="10"/>
<path d="M179.71 424C182.44 421.58 188.71 421.54 194.97 418.81C198.58 417.22 217.34 408.12 226.89 402.04C228.95 400.72 232.67 398.04 237.89 394.35C298.89 351.09 418.03 265.35 505.31 198.43C524.92 183.43 542.81 169.43 557.14 157.79C574.34 143.85 595.49 125.09 614.14 108.13C616.49 105.98 618.68 103.78 620.95 101.78C629.52 94.21 628.47 59.78 615.53 37.97" stroke="#CAC7C7" stroke-width="0.25" stroke-miterlimit="10"/>
<path d="M180.311 424C183.071 421.57 189.311 421.57 195.561 418.8C199.211 417.2 217.811 408.16 227.461 402.02C229.551 400.69 233.261 398.02 238.461 394.34C299.681 350.96 418.581 265.45 505.871 198.52C525.431 183.52 543.301 169.52 557.661 157.85C574.901 143.85 596.001 125.11 614.601 108.15C616.951 106.01 619.131 103.8 621.401 101.8C629.821 94.36 628.631 59.67 615.531 37.98" stroke="#CAC8C8" stroke-width="0.25" stroke-miterlimit="10"/>
<path d="M180.91 424C183.7 421.54 189.79 421.58 196.15 418.79C199.84 417.17 218.28 408.2 228.03 401.99C230.15 400.65 233.86 397.99 239.03 394.32C300.48 350.82 419.12 265.58 506.41 198.61C525.93 183.61 543.78 169.61 558.16 157.91C575.44 143.83 596.5 125.11 615.05 108.17C617.39 106.02 619.58 103.82 621.84 101.81C630.11 94.49 628.78 59.6 615.51 37.99" stroke="#CBC9C8" stroke-width="0.25" stroke-miterlimit="10"/>
<path d="M181.51 424C184.33 421.51 190.31 421.6 196.74 418.78C200.46 417.14 218.74 408.24 228.61 401.97C230.74 400.61 234.45 397.92 239.61 394.3C301.3 350.68 419.68 265.71 506.98 198.69C526.45 183.74 544.28 169.69 558.69 157.96C576 143.8 597 125.09 615.47 108.16C617.82 106.02 620 103.81 622.26 101.8C630.39 94.61 628.91 59.52 615.48 37.97" stroke="#CCCAC9" stroke-width="0.25" stroke-miterlimit="10"/>
<path d="M182.11 424C184.96 421.48 190.83 421.61 197.33 418.76C201.09 417.11 219.22 408.28 229.18 401.94C231.34 400.57 235.05 397.88 240.18 394.28C302.1 350.54 420.18 265.84 507.53 198.77C526.95 183.85 544.76 169.83 559.19 158.02C576.56 143.81 597.52 125.11 615.96 108.2C618.31 106.05 620.48 103.84 622.75 101.83C630.75 94.77 629.09 59.47 615.51 37.99" stroke="#CDCACA" stroke-width="0.25" stroke-miterlimit="10"/>
<path d="M182.7 424C185.58 421.45 191.35 421.63 197.91 418.75C201.72 417.07 219.69 408.32 229.75 401.91C231.93 400.52 235.64 397.85 240.75 394.26C302.91 350.4 420.75 265.98 508.07 198.86C527.45 183.96 545.24 169.93 559.7 158.07C577.1 143.79 598.02 125.07 616.41 108.21C618.75 106.06 620.93 103.85 623.19 101.84C631.02 94.9 629.24 59.4 615.5 38" stroke="#CDCBCB" stroke-width="0.25" stroke-miterlimit="10"/>
<path d="M183.3 424C186.21 421.43 191.88 421.65 198.5 418.74C202.35 417.05 220.16 408.37 230.33 401.89C232.53 400.49 236.24 397.82 241.33 394.25C303.73 350.25 421.33 266.12 508.64 198.95C527.97 184.08 545.74 170.04 560.22 158.14C577.67 143.79 598.54 125.14 616.88 108.24C619.22 106.09 621.39 103.87 623.65 101.87C631.3 95 629.38 59.31 615.48 38" stroke="#CECCCB" stroke-width="0.25" stroke-miterlimit="10"/>
<path d="M183.9 424C186.84 421.41 192.4 421.67 199.09 418.73C202.98 417.02 220.63 408.41 230.9 401.87C233.12 400.45 236.83 397.78 241.9 394.23C304.53 350.13 421.9 266.23 509.18 199.03C528.47 184.19 546.18 170.14 560.73 158.19C578.22 143.78 599.03 125.13 617.33 108.25C619.67 106.1 621.84 103.88 624.09 101.88C631.63 95.18 629.56 59.27 615.5 38.02" stroke="#CFCDCC" stroke-width="0.25" stroke-miterlimit="10"/>
<path d="M184.5 424C187.5 421.38 192.92 421.68 199.68 418.71C203.61 416.99 221.1 408.44 231.47 401.84C233.72 400.41 237.47 397.75 242.47 394.21C305.34 350 422.47 266.38 509.74 199.12C528.98 184.29 546.74 170.24 561.24 158.24C578.77 143.77 599.54 125.13 617.79 108.24C620.12 106.08 622.29 103.86 624.55 101.86C631.93 95.29 629.72 59.18 615.55 37.99" stroke="#D0CECD" stroke-width="0.25" stroke-miterlimit="10"/>
<path d="M185.101 424C188.101 421.35 193.441 421.7 200.271 418.7C204.271 416.96 221.571 408.48 232.051 401.81C234.321 400.37 238.051 397.71 243.051 394.19C306.151 349.86 423.111 266.69 510.301 199.19C529.521 184.43 547.211 170.33 561.761 158.29C579.331 143.74 600.051 125.12 618.251 108.29C620.581 106.14 622.741 103.92 625.001 101.91C632.241 95.47 629.881 59.15 615.501 38.04" stroke="#D0CECE" stroke-width="0.25" stroke-miterlimit="10"/>
<path d="M185.7 424C188.7 421.33 193.96 421.73 200.86 418.7C204.86 416.94 222.04 408.53 232.62 401.79C234.91 400.33 238.62 397.68 243.62 394.18C306.96 349.73 423.62 266.83 510.85 199.29C530.03 184.56 547.7 170.46 562.27 158.36C579.89 143.75 600.56 125.15 618.71 108.36C621.04 106.2 623.2 103.98 625.45 101.97C632.52 95.56 630 59 615.48 38" stroke="#D1CFCF" stroke-width="0.25" stroke-miterlimit="10"/>
<path d="M186.3 424C189.3 421.3 194.48 421.74 201.45 418.68C205.5 416.9 222.51 408.57 233.19 401.77C235.51 400.29 239.19 397.64 244.19 394.16C307.76 349.59 424.19 266.96 511.4 199.38C530.53 184.67 548.18 170.56 562.78 158.38C580.43 143.7 601.06 125.11 619.16 108.28C621.48 106.12 623.64 103.9 625.89 101.89C632.89 95.7 630.18 58.97 615.49 38.01" stroke="#D2D0CF" stroke-width="0.25" stroke-miterlimit="10"/>
<path d="M186.9 424C189.98 421.27 195.01 421.76 202.04 418.67C206.12 416.87 222.98 408.61 233.77 401.74C236.1 400.25 239.77 397.61 244.77 394.14C308.58 349.46 424.77 267.14 511.96 199.46C531.05 184.77 548.68 170.66 563.3 158.46C581 143.72 601.58 125.14 619.63 108.33C621.95 106.17 624.1 103.94 626.36 101.93C633.15 95.87 630.36 58.93 615.5 38.04" stroke="#D3D1D0" stroke-width="0.25" stroke-miterlimit="10"/>
<path d="M187.49 424C190.61 421.25 195.49 421.77 202.63 418.65C213.515 413.613 224.102 407.957 234.34 401.71C236.7 400.21 240.4 397.57 245.34 394.12C309.34 349.32 425.34 267.22 512.51 199.54C531.51 184.88 549.16 170.76 563.81 158.54C581.55 143.72 602.08 125.16 620.08 108.36C622.4 106.2 624.55 103.97 626.8 101.96C633.45 96.0301 630.5 58.8901 615.48 38.0701" stroke="#D3D2D1" stroke-width="0.25" stroke-miterlimit="10"/>
<path d="M188.09 424C191.24 421.22 196.09 421.79 203.22 418.64C214.1 413.584 224.68 407.908 234.91 401.64C237.29 400.13 241 397.49 245.91 394.07C310.19 349.14 425.84 267.32 513.06 199.59C532.06 184.95 549.64 170.82 564.31 158.54C582.09 143.66 602.58 125.11 620.53 108.33C622.84 106.17 624.99 103.93 627.24 101.92C633.75 96.11 630.65 58.77 615.47 38.02" stroke="#D4D2D2" stroke-width="0.25" stroke-miterlimit="10"/>
<path d="M188.69 424C191.87 421.2 196.57 421.81 203.81 418.63C214.689 413.579 225.267 407.903 235.49 401.63C237.89 400.1 241.59 397.47 246.49 394.06C311 349 426.39 267.45 513.61 199.67C532.56 185.06 550.13 170.92 564.83 158.59C582.65 143.65 603.08 125.12 620.99 108.34C623.3 106.18 625.44 103.94 627.69 101.93C634.05 96.25 630.8 58.7 615.47 38.03" stroke="#D5D3D3" stroke-width="0.25" stroke-miterlimit="10"/>
<path d="M189.29 424C192.5 421.17 197.09 421.83 204.4 418.62C215.275 413.573 225.846 407.897 236.06 401.62C238.49 400.07 242.19 397.45 247.06 394.06C311.81 348.87 427 267.58 514.17 199.75C533.07 185.17 550.59 171 565.34 158.65C583.18 143.6 603.59 125.12 621.45 108.36C623.76 106.19 625.9 103.95 628.15 101.94C634.36 96.39 631 58.63 615.47 38" stroke="#D6D4D3" stroke-width="0.25" stroke-miterlimit="10"/>
<path d="M189.89 424C193.13 421.14 197.62 421.84 204.99 418.6C215.86 413.558 226.425 407.882 236.63 401.6C239.08 400.04 242.78 397.42 247.63 394.05C312.63 348.78 427.5 267.75 514.72 199.88C533.58 185.31 551.08 171.14 565.86 158.74C583.74 143.63 604.1 125.16 621.86 108.42C624.16 106.25 626.3 104.01 628.55 101.99C634.61 96.5701 631.07 58.6101 615.42 38.0701" stroke="#D7D5D4" stroke-width="0.25" stroke-miterlimit="10"/>
<path d="M190.49 424C193.75 421.11 198.14 421.86 205.58 418.59C216.447 413.553 227.005 407.876 237.2 401.59C239.68 400.02 243.38 397.41 248.2 394.05C313.43 348.66 428.04 267.9 515.27 199.98C534.08 185.44 551.56 171.26 566.36 158.82C584.28 143.63 604.6 125.18 622.36 108.45C624.66 106.28 626.79 104.04 629.04 102.02C635 96.66 631.28 58.5 615.47 38" stroke="#D7D6D5" stroke-width="0.25" stroke-miterlimit="10"/>
<path d="M191.09 424C194.38 421.09 198.66 421.87 206.17 418.58C217.033 413.542 227.588 407.866 237.78 401.58C240.27 399.99 243.97 397.38 248.78 394.04C314.25 348.54 428.6 268.04 515.84 200.04C534.6 185.53 552.06 171.34 566.84 158.85C584.84 143.6 605.07 125.16 622.78 108.45C625.08 106.27 627.21 104.03 629.45 102.02C635.23 96.8401 631.39 58.4701 615.45 38.0801" stroke="#D8D6D6" stroke-width="0.25" stroke-miterlimit="10"/>
<path d="M191.69 423.94C195.01 421.01 199.18 421.84 206.76 418.51C217.621 413.48 228.169 407.803 238.35 401.51C240.87 399.91 244.57 397.3 249.35 393.98C315.06 348.36 429.14 268.13 516.35 200.12C535.07 185.63 552.51 171.44 567.35 158.9C585.35 143.58 605.58 125.16 623.24 108.45C625.53 106.28 627.66 104.03 629.91 102.02C635.53 97.0201 631.54 58.3901 615.42 38.0801" stroke="#D9D7D7" stroke-width="0.25" stroke-miterlimit="10"/>
<path d="M192.28 423.94C195.64 420.94 199.7 421.85 207.35 418.5C218.205 413.453 228.747 407.76 238.92 401.45C241.46 399.83 245.16 397.24 249.92 393.93C315.88 348.2 429.7 268.24 517 200.17C535.67 185.71 553.09 171.51 568 158.92C586 143.54 606.22 125.13 623.83 108.44C626.12 106.26 628.24 104.01 630.49 102C635.97 97.08 631.83 58.3 615.55 38.05" stroke="#DAD8D8" stroke-width="0.25" stroke-miterlimit="10"/>
<path d="M192.88 423.94C196.27 420.94 200.23 421.87 207.94 418.48C218.796 413.438 229.335 407.741 239.5 401.42C242.06 399.79 245.76 397.2 250.5 393.91C316.69 348.06 430.24 268.37 517.5 200.25C536.12 185.81 553.5 171.61 568.42 158.97C586.51 143.53 606.63 125.13 624.19 108.45C626.49 106.27 628.61 104.02 630.85 102.01C636.18 97.2101 631.85 58.2301 615.46 38.0601" stroke="#DBD9D8" stroke-width="0.25" stroke-miterlimit="10"/>
<path d="M193.48 423.94C196.9 420.94 200.75 421.88 208.53 418.47C219.378 413.421 229.911 407.721 240.07 401.4C242.66 399.75 246.36 397.16 251.07 393.89C317.5 347.89 430.79 268.5 518.07 200.34C536.64 185.92 554 171.71 569 159C587.13 143.48 607.201 125.1 624.711 108.44C627.001 106.26 629.12 104 631.36 101.99C636.55 97.32 632.121 58.13 615.521 37.99" stroke="#DCDAD9" stroke-width="0.25" stroke-miterlimit="10"/>
<path d="M194.08 423.93C197.52 420.93 201.27 421.93 209.08 418.45C219.927 413.407 230.453 407.703 240.6 401.37C243.21 399.71 246.91 397.13 251.6 393.87C318.26 347.8 431.29 268.63 518.6 200.42C537.13 186.03 554.49 171.81 569.44 159.08C587.62 143.5 607.64 125.08 625.1 108.48C627.39 106.3 629.51 104.05 631.75 102.03C636.75 97.49 632.21 58.09 615.45 38.03" stroke="#DCDBDA" stroke-width="0.25" stroke-miterlimit="10"/>
<path d="M194.68 423.93C198.15 420.86 201.79 421.93 209.68 418.44C220.529 413.396 231.056 407.685 241.2 401.34C243.83 399.67 247.53 397.09 252.2 393.85C319.1 347.67 431.87 268.76 519.13 200.5C537.66 186.14 555 171.92 570 159.14C588.21 143.49 608.19 125.14 625.6 108.5C627.89 106.32 630 104.06 632.24 102.04C637.13 97.63 632.41 58.04 615.48 38.04" stroke="#DDDCDB" stroke-width="0.25" stroke-miterlimit="10"/>
<path d="M195.28 423.93C198.78 420.84 202.28 421.93 210.28 418.42C221.128 413.382 231.649 407.667 241.78 401.31C244.43 399.62 248.13 397.05 252.78 393.83C320 347.53 432.46 268.89 519.73 200.58C538.17 186.25 555.5 172.02 570.49 159.19C588.75 143.48 608.68 125.19 626.04 108.51C628.32 106.33 630.43 104.07 632.67 102.05C637.42 97.77 632.54 57.96 615.46 38.05" stroke="#DEDCDC" stroke-width="0.25" stroke-miterlimit="10"/>
<path d="M195.88 423.93C199.41 420.81 202.88 421.93 210.88 418.41C221.722 413.37 232.236 407.652 242.36 401.29C245.04 399.58 248.74 397.02 253.36 393.81C320.77 347.4 433 269 520.29 200.67C538.68 186.35 555.99 172.12 571.01 159.25C589.31 143.47 609.19 125.14 626.5 108.53C628.78 106.34 630.89 104.08 633.12 102.06C637.73 97.9101 632.7 57.8901 615.46 38.0601" stroke="#DFDDDD" stroke-width="0.25" stroke-miterlimit="10"/>
<path d="M196.48 423.93C200.04 420.78 203.36 421.93 211.48 418.4C222.318 413.349 232.828 407.625 242.95 401.26C245.64 399.54 249.34 396.98 253.95 393.79C321.57 347.27 433.551 269.15 520.831 200.79C539.181 186.5 556.47 172.26 571.51 159.34C589.85 143.49 609.681 125.18 626.951 108.58C629.231 106.4 631.33 104.13 633.57 102.11C638.02 98.1101 632.851 57.8601 615.451 38.1101" stroke="#E0DEDE" stroke-width="0.25" stroke-miterlimit="10"/>
<path d="M197.07 423.92C200.67 420.75 203.88 421.98 212.07 418.38C222.904 413.331 233.408 407.603 243.52 401.23C246.24 399.5 249.94 396.94 254.52 393.77C322.4 347.14 434.11 269.29 521.4 200.83C539.7 186.57 556.97 172.33 572.04 159.35C590.42 143.44 610.2 125.14 627.42 108.56C629.69 106.37 631.79 104.1 634.03 102.08C638.34 98.1801 633.03 57.7501 615.46 38.0801" stroke="#E1DFDF" stroke-width="0.25" stroke-miterlimit="10"/>
<path d="M197.67 423.92C201.3 420.72 204.4 421.99 212.67 418.37C223.5 413.318 233.997 407.583 244.1 401.2C246.85 399.46 250.54 396.91 255.1 393.75C323.22 347 434.66 269.42 522 200.92C540.26 186.68 557.51 172.43 572.6 159.41C591.03 143.41 610.76 125.14 627.93 108.57C630.2 106.38 632.3 104.11 634.53 102.09C638.7 98.3201 633.23 57.6801 615.53 38.0901" stroke="#E2E0DF" stroke-width="0.25" stroke-miterlimit="10"/>
<path d="M198.271 423.92C201.921 420.69 204.921 422.01 213.271 418.35C224.1 413.3 234.595 407.562 244.691 401.17C247.451 399.42 251.151 396.87 255.691 393.74C324.001 346.88 435.21 269.55 522.51 201C540.72 186.78 557.95 172.53 573.07 159.46C591.54 143.46 611.221 125.15 628.341 108.59C630.611 106.4 632.7 104.13 634.93 102.1C638.93 98.4601 633.331 57.6201 615.461 38.1001" stroke="#E3E1E0" stroke-width="0.25" stroke-miterlimit="10"/>
<path d="M198.87 423.92C202.55 420.67 205.44 422.02 213.87 418.34C224.694 413.288 235.182 407.546 245.27 401.15C248.06 399.37 251.75 396.83 256.27 393.72C324.86 346.72 435.77 269.72 523.08 201.08C541.24 186.89 558.45 172.63 573.59 159.52C592.1 143.41 611.74 125.15 628.81 108.6C631.07 106.41 633.16 104.14 635.4 102.11C639.27 98.6001 633.5 57.5501 615.47 38.1101" stroke="#E3E2E1" stroke-width="0.25" stroke-miterlimit="10"/>
<path d="M199.47 423.91C203.18 420.64 205.97 422.04 214.42 418.32C225.242 413.273 235.724 407.528 245.8 401.12C248.61 399.33 252.31 396.8 256.8 393.7C325.63 346.62 436.27 269.81 523.58 201.17C541.7 187 558.89 172.73 574.06 159.57C592.61 143.39 612.2 125.15 629.22 108.62C631.48 106.42 633.57 104.15 635.8 102.13C639.53 98.7399 633.61 57.4799 615.42 38.1299" stroke="#E4E3E2" stroke-width="0.25" stroke-miterlimit="10"/>
<path d="M200.07 423.91C203.81 420.61 206.49 422.05 215.01 418.31C225.828 413.255 236.307 407.502 246.38 401.09C249.21 399.29 252.9 396.76 257.38 393.68C326.44 346.49 436.83 269.94 524.14 201.25C542.21 187.11 559.38 172.84 574.57 159.63C593.17 143.38 612.7 125.15 629.68 108.63C631.94 106.44 634.02 104.16 636.25 102.14C639.84 98.8799 633.77 57.4099 615.42 38.1399" stroke="#E5E3E3" stroke-width="0.25" stroke-miterlimit="10"/>
<path d="M200.67 423.91C204.44 420.58 207.01 422.07 215.6 418.29C226.431 413.238 236.921 407.482 247 401.06C249.85 399.25 253.55 396.72 258 393.66C327.31 346.36 437.43 270.07 524.74 201.33C542.74 187.22 559.92 172.94 575.14 159.68C593.77 143.37 613.26 125.15 630.14 108.68C632.39 106.48 634.47 104.2 636.7 102.18C640.15 99.0499 633.93 57.3799 615.42 38.1799" stroke="#E6E4E4" stroke-width="0.25" stroke-miterlimit="10"/>
<path d="M201.271 423.91C205.071 420.55 207.531 422.08 216.191 418.28C226.999 413.208 237.465 407.436 247.521 401C250.401 399.17 254.09 396.65 258.52 393.6C328.12 346.23 438 270.2 525.29 201.42C543.29 187.32 560.401 173.04 575.641 159.73C594.321 143.36 613.761 125.15 630.641 108.66C632.891 106.47 634.971 104.18 637.201 102.16C640.491 99.1599 634.121 57.2799 615.451 38.1599" stroke="#E7E5E5" stroke-width="0.25" stroke-miterlimit="10"/>
<path d="M201.86 423.91C205.69 420.52 208.05 422.1 216.78 418.27C227.586 413.203 238.049 407.434 248.1 401C250.99 399.15 254.69 396.64 259.1 393.61C328.9 346.1 438.48 270.33 525.81 201.49C543.74 187.42 560.81 173.13 576.12 159.78C594.84 143.33 614.23 125.14 631.06 108.67C633.3 106.47 635.38 104.18 637.61 102.16C640.76 99.2899 634.24 57.1599 615.41 38.1599" stroke="#E8E6E6" stroke-width="0.25" stroke-miterlimit="10"/>
<path d="M202.46 423.9C206.32 420.5 208.58 422.11 217.37 418.25C228.173 413.199 238.63 407.436 248.67 401C251.59 399.14 255.29 396.63 259.72 393.62C329.72 346 439.07 270.49 526.4 201.62C544.29 187.62 561.4 173.29 576.67 159.88C595.44 143.37 614.74 125.16 631.56 108.73C633.8 106.53 635.87 104.25 638.1 102.22C641.1 99.4799 634.44 57.2199 615.45 38.1699" stroke="#E9E7E6" stroke-width="0.25" stroke-miterlimit="10"/>
<path d="M203.061 423.9C206.951 420.47 209.061 422.13 217.961 418.24C228.759 413.195 239.209 407.436 249.241 401C252.191 399.13 255.881 396.63 260.291 393.63C330.571 345.9 439.621 270.63 526.961 201.72C544.801 187.72 561.871 173.4 577.191 159.95C595.991 143.37 615.251 125.18 632.021 108.76C634.251 106.55 636.331 104.27 638.551 102.24C641.421 99.63 634.601 57.12 615.451 38.24" stroke="#E9E8E7" stroke-width="0.25" stroke-miterlimit="10"/>
<path d="M203.66 423.9C207.58 420.44 209.66 422.14 218.55 418.22C229.349 413.164 239.796 407.387 249.82 400.93C252.82 399.04 256.48 396.54 260.87 393.56C331.39 345.72 440.17 270.73 527.52 201.75C545.31 187.75 562.36 173.45 577.7 159.95C596.55 143.31 615.76 125.13 632.48 108.73C634.71 106.52 636.78 104.23 639.01 102.2C641.73 99.7199 634.76 57.0099 615.45 38.1399" stroke="#EAE9E8" stroke-width="0.25" stroke-miterlimit="10"/>
<path d="M204.26 423.9C208.26 420.41 210.14 422.16 219.14 418.21C229.93 413.142 240.37 407.359 250.39 400.9C253.39 399 257.07 396.5 261.44 393.54C332.21 345.6 440.72 270.86 528.07 201.83C545.82 187.83 562.85 173.55 578.22 160.01C597.11 143.3 616.22 125.13 632.93 108.74C635.17 106.53 637.24 104.24 639.46 102.21C642.04 99.8599 634.91 56.9399 615.46 38.1399" stroke="#EBEAE9" stroke-width="0.25" stroke-miterlimit="10"/>
<path d="M204.86 423.9C208.86 420.38 210.66 422.17 219.73 418.19C230.533 413.129 240.98 407.342 251 400.87C254 398.95 257.71 396.47 262.06 393.52C333.06 345.52 441.31 270.99 528.67 201.92C546.37 187.97 563.38 173.65 578.77 160.06C597.7 143.28 616.77 125.13 633.43 108.76C635.66 106.54 637.73 104.25 639.95 102.22C642.38 99.9999 635.11 56.8699 615.49 38.1499" stroke="#ECEBEA" stroke-width="0.25" stroke-miterlimit="10"/>
<path d="M205.46 423.89C209.46 420.35 211.18 422.19 220.32 418.18C231.107 413.113 241.537 407.319 251.54 400.84C254.54 398.91 258.26 396.43 262.54 393.5C333.85 345.35 441.83 271.12 529.18 202C546.84 188.08 563.83 173.76 579.25 160.11C598.25 143.27 617.25 125.11 633.85 108.77C636.08 106.56 638.14 104.26 640.36 102.23C642.58 100.2 635.23 56.7999 615.45 38.1499" stroke="#EDECEB" stroke-width="0.25" stroke-miterlimit="10"/>
<path d="M206.061 423.89C210.061 420.33 211.711 422.2 220.911 418.16C231.693 413.096 242.117 407.303 252.111 400.82C255.111 398.87 258.861 396.39 263.171 393.48C334.671 345.22 442.381 271.26 529.741 202.08C547.351 188.19 564.321 173.86 579.741 160.17C598.741 143.26 617.741 125.17 634.291 108.79C636.521 106.57 638.581 104.27 640.801 102.24C643.021 100.21 635.371 56.7399 615.431 38.1599" stroke="#EEEDEC" stroke-width="0.25" stroke-miterlimit="10"/>
<path d="M206.65 423.89C210.72 420.3 212.23 422.22 221.5 418.15C232.278 413.083 242.696 407.283 252.68 400.79C255.76 398.79 259.45 396.36 263.75 393.46C335.49 345.1 442.93 271.39 530.3 202.17C547.86 188.3 564.81 173.96 580.3 160.22C599.35 143.22 618.3 125.14 634.79 108.8C637.01 106.58 639.07 104.29 641.29 102.25C643.29 100.42 635.57 56.6699 615.47 38.1599" stroke="#EFEEED" stroke-width="0.25" stroke-miterlimit="10"/>
<path d="M207.25 423.89C211.35 420.27 212.75 422.24 222.08 418.14C227.5 415.76 238.94 409.88 253.26 400.76C256.36 398.76 260.05 396.32 264.32 393.44C336.32 344.98 443.48 271.52 530.85 202.25C548.37 188.4 565.31 174.06 580.79 160.25C599.89 143.25 618.79 125.12 635.23 108.79C637.45 106.57 639.5 104.27 641.72 102.24C643.58 100.53 635.72 56.5699 615.45 38.1399" stroke="#F0EEEE" stroke-width="0.25" stroke-miterlimit="10"/>
<path d="M207.851 423.88C211.981 420.24 213.271 422.25 222.671 418.12C228.131 415.72 239.411 409.92 253.831 400.73C256.951 398.73 260.641 396.28 264.901 393.42C337.131 344.85 444.001 271.65 531.411 202.33C548.881 188.51 565.801 174.16 581.311 160.33C600.451 143.22 619.311 125.15 635.691 108.83C637.911 106.61 639.961 104.31 642.171 102.28C643.891 100.7 635.861 56.5299 615.441 38.1699" stroke="#F1EFEF" stroke-width="0.25" stroke-miterlimit="10"/>
<path d="M208.45 423.88C212.61 420.21 213.79 422.27 223.26 418.11C228.76 415.69 239.88 409.95 254.4 400.71C257.55 398.71 261.24 396.25 265.47 393.41C338 344.73 444.58 271.78 532 202.42C549.43 188.62 566.33 174.27 581.86 160.42C601.05 143.24 619.86 125.18 636.19 108.88C638.4 106.66 640.45 104.35 642.67 102.32C644.24 100.88 636.06 56.49 615.48 38.21" stroke="#F2F0F0" stroke-width="0.25" stroke-miterlimit="10"/>
<path d="M209.05 423.88C213.24 420.18 214.32 422.28 223.85 418.09C229.39 415.66 240.35 409.99 254.97 400.68C258.14 398.68 261.83 396.21 266.05 393.39C338.77 344.61 445.13 271.91 532.52 202.5C549.9 188.73 566.78 174.37 582.34 160.44C601.56 143.2 620.34 125.15 636.61 108.86C638.82 106.64 640.86 104.33 643.08 102.3C644.51 100.99 636.18 56.3999 615.44 38.1799" stroke="#F3F1F1" stroke-width="0.25" stroke-miterlimit="10"/>
<path d="M209.65 423.88C213.86 420.16 214.84 422.3 224.44 418.08C230.02 415.63 240.81 410.03 255.55 400.65C258.74 398.65 262.43 396.18 266.62 393.37C339.62 344.49 445.68 272.04 533.08 202.58C550.41 188.83 567.27 174.47 582.85 160.49C602.12 143.19 620.85 125.16 637.07 108.88C639.28 106.65 641.32 104.34 643.53 102.31C644.82 101.13 636.34 56.3099 615.44 38.1899" stroke="#F4F3F2" stroke-width="0.25" stroke-miterlimit="10"/>
<path d="M210.25 423.88C214.49 420.13 215.36 422.31 225.03 418.06C230.65 415.6 241.28 410.06 256.12 400.62C259.33 398.62 263.03 396.14 267.2 393.35C340.42 344.35 446.2 272.17 533.63 202.67C550.92 188.94 567.76 174.57 583.37 160.55C602.68 143.17 621.37 125.16 637.53 108.89C639.73 106.67 641.77 104.35 643.98 102.32C645.13 101.32 636.5 56.2599 615.44 38.1899" stroke="#F5F4F3" stroke-width="0.25" stroke-miterlimit="10"/>
<path d="M210.851 423.87C215.121 420.1 215.851 422.33 225.621 418.05C231.271 415.57 241.751 410.11 256.691 400.6C259.931 398.54 263.621 396.1 267.771 393.33C341.241 344.24 446.771 272.33 534.191 202.75C551.431 189.05 568.251 174.68 583.881 160.6C603.231 143.16 621.881 125.16 637.991 108.91C640.191 106.68 642.221 104.37 644.441 102.33C645.441 101.41 636.651 56.19 615.441 38.2" stroke="#F6F5F4" stroke-width="0.25" stroke-miterlimit="10"/>
<path d="M211.44 423.87C215.75 420.07 216.44 422.34 226.21 418.03C231.9 415.53 242.21 410.15 257.27 400.57C260.53 398.49 264.224 396.07 268.35 393.31C342.15 344.26 447.35 272.44 534.74 202.83C551.94 189.16 568.74 174.78 584.4 160.66C603.79 143.15 622.4 125.17 638.45 108.92C640.65 106.69 642.68 104.38 644.89 102.34C645.74 101.55 636.81 56.12 615.44 38.2" stroke="#F7F6F5" stroke-width="0.25" stroke-miterlimit="10"/>
<path d="M212 423.87C216.34 420.04 216.89 422.36 226.76 418.02C232.49 415.5 242.65 410.18 257.76 400.54C261.04 398.447 264.737 396.03 268.85 393.29C342.85 344.12 447.85 272.57 535.22 202.91C552.37 189.27 569.15 174.91 584.83 160.71C604.27 143.14 622.83 125.17 638.83 108.94C641.02 106.71 643.05 104.39 645.26 102.35C645.97 101.69 636.89 56.06 615.36 38.2" stroke="#F8F7F7" stroke-width="0.25" stroke-miterlimit="10"/>
<path d="M212.64 423.87C217.01 420.01 217.45 422.37 227.39 418.01C233.16 415.47 243.16 410.22 258.39 400.51C261.723 398.41 265.42 395.997 269.48 393.27C343.77 344 448.44 272.7 535.86 203C552.96 189.37 569.72 175 585.43 160.77C604.91 143.13 623.43 125.17 639.37 108.95C641.56 106.72 643.58 104.4 645.79 102.36C646.36 101.84 637.13 55.99 615.44 38.21" stroke="#F9F8F8" stroke-width="0.25" stroke-miterlimit="10"/>
<path d="M213.24 423.87C217.64 420 218 422.39 228 418C233.81 415.45 243.65 410.27 259 400.5C262.334 398.38 266.03 395.967 270.09 393.26C344.58 343.84 449 272.83 536.41 203.08C553.47 189.48 570.21 175.08 585.94 160.82C605.46 143.11 623.94 125.17 639.83 108.97C642.02 106.74 644.04 104.41 646.25 102.37C646.67 101.98 637.25 55.92 615.44 38.21" stroke="#FAFAFA" stroke-width="0.25" stroke-miterlimit="10"/>
<path d="M213.84 423.86C218.26 419.96 218.49 422.4 228.57 417.98C234.42 415.41 244.1 410.3 259.57 400.46C262.903 398.333 266.6 395.923 270.66 393.23C345.39 343.7 449.54 273 537 203.16C554 189.59 570.73 175.16 586.49 160.87C606.05 143.1 624.49 125.18 640.32 108.98C642.5 106.75 644.52 104.42 646.73 102.38C647.01 102.12 637.47 55.85 615.47 38.22" stroke="#FCFCFB" stroke-width="0.25" stroke-miterlimit="10"/>
<path d="M214.44 423.86C218.89 419.93 219.01 422.42 229.16 417.96C235.05 415.38 244.57 410.34 260.16 400.43C263.534 398.29 267.234 395.883 271.26 393.21C346.26 343.56 450.12 273.09 537.56 203.21C554.56 189.66 571.22 175.21 587 160.89C606.61 143.05 625 125.14 640.78 108.96C642.96 106.72 644.97 104.39 647.18 102.35C647.32 102.22 637.63 55.7499 615.46 38.1799" stroke="#FDFDFD" stroke-width="0.25" stroke-miterlimit="10"/>
<path d="M215 423.86C222.65 417.11 217.29 429.25 271.76 393.19C346.97 343.42 450.6 273.19 538.04 203.33C578.91 170.67 618.34 132.83 647.56 102.4C647.56 102.4 637.72 55.72 615.39 38.23" stroke="white" stroke-width="0.25" stroke-miterlimit="10"/>
</g>
<path style="mix-blend-mode:multiply" opacity="0.55" d="M600.19 77.5701C590.19 91.1801 575.87 105.24 562.59 113.29C548.39 124 423.9 207.66 289.81 298.92C186.23 369.41 580 13.0701 580 13.0701C580 13.0701 601 22.6201 615.42 38.2301C615.42 38.2301 615.33 51.2301 602.02 75.1501L600.19 77.5701Z" fill="url(#paint0_linear_9_360)"/>
<path d="M124.09 425C120.79 425 163.81 423.58 232.19 329.79C308.8 224.71 437.19 25.29 437.19 25.29C437.19 25.29 437.99 63.62 466.86 86.63C514.98 125.01 562.8 111.63 577.36 102.63C579.68 101.274 581.814 99.6234 583.71 97.72L242.46 359C242.46 359 160.48 425 124.09 425Z" fill="#5EA0C2"/>
<path d="M437.17 25.29C443.36 91.85 517.34 114.99 555.35 107.19C595.71 99.31 614.65 54.97 615.57 37.42C615.91 56.42 598.51 101.9 556.16 111.1C514.12 120.18 436 93.51 437.17 25.29Z" fill="white"/>
<path d="M479.504 286.002L461.62 320.094V341.81H456.031V320.094L437.987 286.002H444.294L458.825 314.984L473.276 286.002H479.504ZM512.753 342.369C507.59 342.369 502.906 341.171 498.702 338.776C494.497 336.328 491.17 332.948 488.722 328.636C486.326 324.272 485.129 319.348 485.129 313.866C485.129 308.384 486.326 303.487 488.722 299.175C491.17 294.811 494.497 291.431 498.702 289.036C502.906 286.587 507.59 285.363 512.753 285.363C517.97 285.363 522.68 286.587 526.885 289.036C531.09 291.431 534.39 294.811 536.785 299.175C539.18 303.487 540.378 308.384 540.378 313.866C540.378 319.348 539.18 324.272 536.785 328.636C534.39 332.948 531.09 336.328 526.885 338.776C522.68 341.171 517.97 342.369 512.753 342.369ZM512.753 337.499C516.905 337.499 520.631 336.541 523.931 334.624C527.231 332.708 529.839 329.967 531.755 326.401C533.671 322.782 534.63 318.603 534.63 313.866C534.63 309.129 533.671 304.977 531.755 301.411C529.839 297.845 527.231 295.104 523.931 293.187C520.631 291.271 516.905 290.313 512.753 290.313C508.602 290.313 504.876 291.271 501.576 293.187C498.276 295.104 495.668 297.845 493.751 301.411C491.835 304.977 490.877 309.129 490.877 313.866C490.877 318.603 491.835 322.782 493.751 326.401C495.668 329.967 498.276 332.708 501.576 334.624C504.876 336.541 508.602 337.499 512.753 337.499ZM555.954 286.002V321.131C555.954 326.667 557.258 330.766 559.866 333.427C562.527 336.088 566.147 337.419 570.724 337.419C575.302 337.419 578.868 336.115 581.423 333.507C584.031 330.845 585.335 326.72 585.335 321.131V286.002H590.924V321.052C590.924 328.131 589.034 333.453 585.255 337.02C581.529 340.586 576.659 342.369 570.644 342.369C564.63 342.369 559.733 340.586 555.954 337.02C552.228 333.453 550.365 328.131 550.365 321.052V286.002H555.954ZM645.465 341.81H639.876L608.978 294.864V341.81H603.389V286.002H608.978L639.876 332.868V286.002H645.465V341.81ZM702.035 302.289C700.438 298.617 697.99 295.742 694.69 293.667C691.443 291.537 687.611 290.473 683.193 290.473C679.041 290.473 675.315 291.431 672.015 293.347C668.715 295.263 666.107 298.005 664.191 301.571C662.275 305.084 661.317 309.182 661.317 313.866C661.317 318.55 662.275 322.675 664.191 326.241C666.107 329.807 668.715 332.549 672.015 334.465C675.315 336.381 679.041 337.339 683.193 337.339C687.079 337.339 690.565 336.514 693.652 334.864C696.792 333.161 699.294 330.766 701.157 327.678C703.073 324.538 704.164 320.892 704.43 316.74H680.958V312.189H710.339V316.261C710.073 321.158 708.742 325.603 706.347 329.595C703.951 333.533 700.731 336.647 696.686 338.936C692.694 341.225 688.196 342.369 683.193 342.369C678.03 342.369 673.346 341.171 669.141 338.776C664.936 336.328 661.61 332.948 659.161 328.636C656.766 324.272 655.568 319.348 655.568 313.866C655.568 308.384 656.766 303.487 659.161 299.175C661.61 294.811 664.936 291.431 669.141 289.036C673.346 286.587 678.03 285.363 683.193 285.363C689.154 285.363 694.371 286.854 698.842 289.834C703.313 292.815 706.56 296.967 708.582 302.289H702.035Z" fill="#818181"/>
<path d="M459.037 364.233V432.98H442.291V364.233H459.037ZM532.673 432.98H515.927L487.919 390.576V432.98H471.173V364.233H487.919L515.927 406.833V364.233H532.673V432.98ZM570.567 364.233C577.814 364.233 584.147 365.669 589.566 368.542C594.985 371.415 599.163 375.462 602.101 380.685C605.104 385.843 606.606 391.817 606.606 398.607C606.606 405.331 605.104 411.305 602.101 416.528C599.163 421.751 594.952 425.798 589.468 428.671C584.049 431.544 577.749 432.98 570.567 432.98H544.812V364.233H570.567ZM569.49 418.486C575.823 418.486 580.752 416.756 584.278 413.296C587.803 409.836 589.566 404.939 589.566 398.607C589.566 392.274 587.803 387.345 584.278 383.819C580.752 380.294 575.823 378.531 569.49 378.531H561.558V418.486H569.49ZM632.71 364.233V432.98H615.964V364.233H632.71ZM687.641 420.837H661.984L657.871 432.98H640.341L665.215 364.233H684.605L709.48 432.98H691.754L687.641 420.837ZM683.332 407.91L674.812 382.742L666.39 407.91H683.332Z" fill="#818181"/>
<path d="M280.318 462.672C280.318 467.39 278.772 471.191 275.679 474.074C272.586 476.957 267.947 478.398 261.761 478.398H250.674V501.83H245.17V446.868H261.761C267.894 446.868 272.507 448.309 275.6 451.192C278.745 454.075 280.318 457.902 280.318 462.672ZM261.761 473.681C270.358 473.681 274.657 470.011 274.657 462.672C274.657 459.003 273.634 456.225 271.59 454.338C269.546 452.45 266.269 451.507 261.761 451.507H250.674V473.681H261.761ZM294.821 446.868V481.465C294.821 486.917 296.106 490.953 298.674 493.574C301.295 496.195 304.86 497.505 309.368 497.505C313.876 497.505 317.388 496.221 319.904 493.653C322.473 491.032 323.757 486.969 323.757 481.465V446.868H329.261V481.386C329.261 488.358 327.4 493.6 323.679 497.112C320.009 500.624 315.213 502.38 309.289 502.38C303.366 502.38 298.543 500.624 294.821 497.112C291.152 493.6 289.317 488.358 289.317 481.386V446.868H294.821ZM367.25 473.445C370.343 474.021 372.964 475.594 375.113 478.162C377.262 480.731 378.337 483.719 378.337 487.126C378.337 489.905 377.629 492.421 376.214 494.675C374.851 496.876 372.833 498.632 370.159 499.943C367.486 501.201 364.288 501.83 360.567 501.83H341.538V446.868H360.016C365.573 446.868 369.792 448.152 372.676 450.721C375.611 453.289 377.079 456.618 377.079 460.707C377.079 464.114 376.162 466.892 374.327 469.041C372.492 471.138 370.133 472.606 367.25 473.445ZM347.042 471.164H359.859C363.581 471.164 366.438 470.299 368.43 468.57C370.474 466.787 371.496 464.35 371.496 461.257C371.496 458.217 370.474 455.832 368.43 454.102C366.438 452.372 363.502 451.507 359.623 451.507H347.042V471.164ZM360.173 497.191C364.157 497.191 367.25 496.247 369.452 494.36C371.706 492.473 372.833 489.878 372.833 486.576C372.833 483.273 371.653 480.652 369.294 478.713C366.988 476.721 363.869 475.725 359.938 475.725H347.042V497.191H360.173ZM393.959 497.348H413.695V501.83H388.455V446.868H393.959V497.348ZM427.054 446.868V501.83H421.55V446.868H427.054ZM437.002 474.31C437.002 468.91 438.182 464.088 440.541 459.842C442.9 455.543 446.123 452.215 450.212 449.856C454.301 447.444 458.861 446.239 463.894 446.239C470.027 446.239 475.269 447.706 479.62 450.642C484.023 453.525 487.221 457.614 489.213 462.908H482.765C481.192 459.186 478.781 456.277 475.531 454.18C472.333 452.083 468.454 451.035 463.894 451.035C459.857 451.035 456.214 451.979 452.964 453.866C449.767 455.753 447.25 458.479 445.416 462.043C443.581 465.555 442.664 469.644 442.664 474.31C442.664 478.975 443.581 483.064 445.416 486.576C447.25 490.088 449.767 492.788 452.964 494.675C456.214 496.562 459.857 497.505 463.894 497.505C468.454 497.505 472.333 496.483 475.531 494.439C478.781 492.342 481.192 489.459 482.765 485.79H489.213C487.221 491.032 484.023 495.094 479.62 497.977C475.216 500.86 469.974 502.302 463.894 502.302C458.861 502.302 454.301 501.122 450.212 498.764C446.123 496.352 442.9 493.024 440.541 488.777C438.182 484.531 437.002 479.709 437.002 474.31ZM532.025 488.777H507.021L502.225 501.83H496.406L516.457 447.575H522.668L542.64 501.83H536.822L532.025 488.777ZM530.374 484.217L519.523 454.495L508.672 484.217H530.374ZM583.634 446.868V451.428H568.38V501.83H562.875V451.428H547.543V446.868H583.634ZM597.829 446.868V501.83H592.325V446.868H597.829ZM634.983 502.38C629.898 502.38 625.285 501.201 621.144 498.842C617.003 496.431 613.726 493.102 611.315 488.856C608.956 484.558 607.777 479.709 607.777 474.31C607.777 468.91 608.956 464.088 611.315 459.842C613.726 455.543 617.003 452.215 621.144 449.856C625.285 447.444 629.898 446.239 634.983 446.239C640.12 446.239 644.759 447.444 648.9 449.856C653.041 452.215 656.292 455.543 658.65 459.842C661.009 464.088 662.189 468.91 662.189 474.31C662.189 479.709 661.009 484.558 658.65 488.856C656.292 493.102 653.041 496.431 648.9 498.842C644.759 501.201 640.12 502.38 634.983 502.38ZM634.983 497.584C639.072 497.584 642.741 496.64 645.991 494.753C649.241 492.866 651.81 490.167 653.697 486.654C655.584 483.09 656.527 478.975 656.527 474.31C656.527 469.644 655.584 465.555 653.697 462.043C651.81 458.531 649.241 455.832 645.991 453.944C642.741 452.057 639.072 451.114 634.983 451.114C630.894 451.114 627.225 452.057 623.975 453.944C620.725 455.832 618.156 458.531 616.269 462.043C614.382 465.555 613.438 469.644 613.438 474.31C613.438 478.975 614.382 483.09 616.269 486.654C618.156 490.167 620.725 492.866 623.975 494.753C627.225 496.64 630.894 497.584 634.983 497.584ZM713.698 501.83H708.194L677.764 455.596V501.83H672.26V446.868H677.764L708.194 493.024V446.868H713.698V501.83Z" fill="#818181"/>
<defs>
<linearGradient id="paint0_linear_9_360" x1="448.4" y1="179.1" x2="419.22" y2="138.91" gradientUnits="userSpaceOnUse">
<stop stop-color="#BBBBBB"/>
<stop offset="1" stop-color="#F7F8F8"/>
</linearGradient>
</defs>
</svg>
