<svg width="1886" height="1886" viewBox="0 0 1886 1886" fill="none" xmlns="http://www.w3.org/2000/svg">
<path d="M943 1876C1458.28 1876 1876 1458.28 1876 943C1876 427.718 1458.28 10 943 10C427.718 10 10 427.718 10 943C10 1458.28 427.718 1876 943 1876Z" fill="#D9D9D9" stroke="#B7B7B7" stroke-width="20" stroke-miterlimit="10"/>
<path d="M714.552 1031.89V1339.2H564.465V1031.89L330.026 542.737H487.223L639.502 885.644L791.794 542.737H949.003L714.552 1031.89Z" fill="#0D0D0D"/>
<path d="M948.574 540.947H792.766V1338.58H948.574V540.947Z" fill="#0D0D0D"/>
<path d="M986.131 540.934H1136.44V1338.56H986.131V540.934ZM1054.69 884.36H1309.79C1327.7 884.36 1343.51 880.239 1357.23 871.996C1371.03 863.681 1382.16 851.596 1389.32 837.163C1397 822.166 1400.84 804.981 1400.84 785.608C1400.84 765.845 1397.1 748.384 1389.6 733.222C1382.66 718.651 1371.6 706.436 1357.79 698.091C1344.08 689.883 1328.08 685.775 1309.79 685.766H1054.69V540.934H1305.93C1355.67 540.934 1399.47 551.083 1437.33 571.382C1475.18 591.68 1504.53 620.295 1525.36 657.225C1546.22 694.19 1556.65 737.002 1556.64 785.66C1556.63 834.318 1546.2 877.013 1525.36 913.744C1504.53 950.493 1475.18 978.934 1437.33 999.069C1399.47 1019.2 1355.67 1029.25 1305.93 1029.22H1054.69V884.36Z" fill="#0D0D0D"/>
<path d="M714.161 1031.76V1339.58H563.815V1031.76L329 541.79H486.456L638.994 885.269L791.533 541.79H949.001L714.161 1031.76Z" fill="#0D0D0D"/>
<path d="M948.587 540H792.52V1338.95H948.587V540Z" fill="#0D0D0D"/>
<g style="mix-blend-mode:multiply">
<path d="M577.918 1342.35C578.528 1341.81 606.744 1335.04 608.119 1334.44C608.937 1334.08 668.756 1306.14 670.923 1304.76C671.403 1304.46 678.603 1298.8 691.252 1289.01" stroke="#B7B7B7" stroke-width="0.25" stroke-miterlimit="10"/>
</g>
<path d="M560.429 1345.95C554.189 1345.95 635.479 1343.26 764.666 1166.05C909.407 967.557 1151.93 590.764 1151.93 590.764C1151.93 590.764 1153.46 663.167 1208 706.666C1298.91 779.16 1388.09 752.28 1415.57 735.207C1421.2 731.585 1426.51 727.493 1431.45 722.973L784.086 1221.14C784.086 1221.14 629.213 1345.96 560.455 1345.96" fill="#0D0D0D"/>
<path d="M560.429 1345.95C554.189 1345.95 635.479 1343.26 764.666 1166.05C909.407 967.557 1151.93 590.764 1151.93 590.764C1151.93 590.764 1153.46 663.167 1208 706.666C1298.91 779.16 1388.09 752.28 1415.57 735.207C1421.2 731.585 1426.51 727.493 1431.45 722.973L784.086 1221.14C784.086 1221.14 629.213 1345.96 560.455 1345.96" stroke="white" stroke-width="6" stroke-miterlimit="10"/>
<path d="M1153.95 592.827C1165.63 718.576 1305.43 762.296 1377.23 747.571C1453.49 732.678 1492.7 635.418 1494.51 602.272C1495.15 638.246 1458.78 737.582 1378.77 754.979C1299.34 772.116 1151.83 721.742 1153.95 592.814" fill="white"/>
<path d="M1153.95 592.827C1165.63 718.576 1305.43 762.296 1377.23 747.571C1453.49 732.678 1492.7 635.418 1494.51 602.272C1495.15 638.246 1458.78 737.582 1378.77 754.979C1299.34 772.116 1151.83 721.742 1153.95 592.814" stroke="white" stroke-width="2" stroke-miterlimit="10"/>
</svg>
