<svg width="1228" height="809" viewBox="0 0 1228 809" fill="none" xmlns="http://www.w3.org/2000/svg">
<path d="M385.552 491.891V799.2H235.465V491.891L1.0264 2.7373H158.223L310.502 345.644L462.794 2.7373H620.003L385.552 491.891Z" fill="currentColor"/>
<path d="M619.574 0.946838H463.766V798.577H619.574V0.946838Z" fill="currentColor"/>
<path d="M657.131 0.933777H807.438V798.564H657.131V0.933777ZM725.694 344.36H980.786C998.697 344.36 1014.51 340.239 1028.23 331.996C1042.03 323.681 1053.16 311.596 1060.32 297.163C1068 282.166 1071.84 264.981 1071.84 245.608C1071.84 225.845 1068.1 208.384 1060.6 193.222C1053.66 178.651 1042.6 166.436 1028.79 158.091C1015.08 149.883 999.078 145.775 980.786 145.766H725.694V0.933777H976.933C1026.67 0.933777 1070.47 11.0831 1108.33 31.3818C1146.18 51.6805 1175.53 80.2951 1196.36 117.225C1217.22 154.19 1227.65 197.002 1227.64 245.66C1227.63 294.318 1217.2 337.013 1196.36 373.744C1175.53 410.493 1146.18 438.934 1108.33 459.069C1070.47 479.203 1026.67 489.253 976.933 489.218H725.694V344.36Z" fill="currentColor"/>
<path d="M385.161 491.762V799.577H234.815V491.762L9.15527e-05 1.79041H157.456L309.994 345.269L462.533 1.79041H620.001L385.161 491.762Z" fill="currentColor"/>
<path d="M619.587 0H463.52V798.954H619.587V0Z" fill="currentColor"/>
<g style="mix-blend-mode:multiply">
<path d="M248.918 802.353C249.528 801.808 277.744 795.036 279.119 794.439C279.937 794.076 339.756 766.144 341.923 764.756C342.403 764.458 349.603 758.802 362.252 749.007" stroke="#B7B7B7" stroke-width="0.25" stroke-miterlimit="10"/>
</g>
<path d="M231.429 805.946C225.189 805.946 306.479 803.26 435.666 626.047C580.407 427.557 822.928 50.7636 822.928 50.7636C822.928 50.7636 824.459 123.167 878.998 166.666C969.914 239.16 1059.09 212.28 1086.57 195.207C1092.2 191.585 1097.51 187.493 1102.45 182.973L455.086 681.144C455.086 681.144 300.213 805.959 231.455 805.959" fill="currentColor"/>
<path d="M231.429 805.946C225.189 805.946 306.479 803.26 435.666 626.047C580.407 427.557 822.928 50.7636 822.928 50.7636C822.928 50.7636 824.459 123.167 878.998 166.666C969.914 239.16 1059.09 212.28 1086.57 195.207C1092.2 191.585 1097.51 187.493 1102.45 182.973L455.086 681.144C455.086 681.144 300.213 805.959 231.455 805.959" stroke="white" stroke-width="6" stroke-miterlimit="10"/>
<path d="M824.953 52.827C836.629 178.576 976.428 222.296 1048.23 207.571C1124.49 192.678 1163.7 95.418 1165.51 62.2715C1166.15 98.2462 1129.78 197.582 1049.77 214.979C970.343 232.116 822.825 181.742 824.953 52.814" fill="white"/>
<path d="M824.953 52.827C836.629 178.576 976.428 222.296 1048.23 207.571C1124.49 192.678 1163.7 95.418 1165.51 62.2715C1166.15 98.2462 1129.78 197.582 1049.77 214.979C970.343 232.116 822.825 181.742 824.953 52.814" stroke="white" stroke-width="2" stroke-miterlimit="10"/>
</svg>
